<svg width="180" height="44" viewBox="0 0 180 44" fill="none" xmlns="http://www.w3.org/2000/svg">
<g clip-path="url(#clip0_30_1022)">
<path d="M11.4774 22.0142C11.4774 24.7417 11.8895 27.152 12.7184 29.2402C13.5474 31.3285 14.6416 33.0805 16.0058 34.4963C17.37 35.9122 18.9426 36.9871 20.7189 37.7211C22.4953 38.455 24.3474 38.8196 26.2705 38.8196C27.7389 38.8196 29.1079 38.5687 30.3821 38.062C31.6516 37.5553 32.8405 36.8687 33.9489 36.0022C35.0526 35.1356 36.0947 34.1317 37.0658 32.9953L37.0942 32.9621C38.7426 31.0301 41.58 30.6655 43.6263 32.1666L44.1663 32.5644C43.2379 34.0512 42.1153 35.4907 40.8032 36.8734C39.4911 38.2561 38.0179 39.4778 36.3837 40.5338C34.7495 41.5898 32.9732 42.4326 31.05 43.0624C29.1268 43.6922 27.09 44.0095 24.9395 44.0095C21.3205 44.0095 17.9858 43.4839 14.9353 42.4279C11.8847 41.3719 9.25579 39.8851 7.04368 37.9626C4.83158 36.04 3.10263 33.7292 1.86158 31.0349C0.620526 28.3358 0 25.3336 0 22.0284C0 18.7232 0.587368 15.8773 1.76684 13.1924C2.94632 10.5075 4.60421 8.18252 6.74526 6.2316C8.88632 4.27594 11.4489 2.75592 14.4379 1.65734C17.4268 0.563496 20.7284 0.0142059 24.3474 0.0142059C26.7679 0.0142059 28.98 0.298321 30.9837 0.866552C32.9874 1.43478 34.8158 2.22084 36.4595 3.22471C38.1032 4.22858 39.5716 5.4266 40.8647 6.8235C42.1579 8.22041 43.2995 9.75463 44.2942 11.4262L43.9105 11.6961C41.7884 13.183 38.8989 12.8799 37.1321 10.9858L37.0516 10.9006C36.0047 9.78304 34.8963 8.80758 33.7168 7.96944C32.5374 7.1313 31.2963 6.4731 29.9937 5.98536C28.6911 5.50237 27.3363 5.25613 25.9295 5.25613C24.0063 5.25613 22.1732 5.61601 20.4253 6.34051C18.6774 7.065 17.1426 8.13517 15.8211 9.55101C14.4995 10.9669 13.4432 12.7189 12.6568 14.8071C11.8705 16.8954 11.4774 19.3009 11.4774 22.0331V22.0142Z" fill="#111111"/>
<path d="M27.5921 30.3009C22.9831 30.3009 19.2031 26.9815 19.2031 21.7254C19.2031 16.4692 22.9831 13.1498 27.5921 13.1498C38.7521 13.1498 38.7521 30.3009 27.5921 30.3009Z" fill="#111111"/>
<path d="M66.0694 24.2208C66.0694 26.3233 66.3821 28.2032 67.0026 29.8605C67.6231 31.5179 68.4852 32.9148 69.5889 34.0607C70.6926 35.2066 71.9952 36.0827 73.5015 36.6982C75.0079 37.3138 76.6421 37.6216 78.4089 37.6216C79.451 37.6216 80.46 37.418 81.4358 37.0155C82.4115 36.613 83.3163 36.0827 84.15 35.4245C84.9836 34.7663 85.7321 34.0276 86.3952 33.2036C87.0584 32.3797 87.6031 31.5463 88.0247 30.7081L90.1184 32.0719C89.5121 33.0805 88.7873 34.0465 87.9489 34.9746C87.1058 35.898 86.1394 36.7172 85.0452 37.4227C83.951 38.1283 82.71 38.6965 81.3221 39.1274C79.9342 39.5583 78.3805 39.7714 76.6658 39.7714C74.1931 39.7714 71.9431 39.3547 69.9158 38.5213C67.8884 37.6879 66.1547 36.5657 64.7147 35.1545C63.2747 33.7434 62.1615 32.0956 61.3705 30.2109C60.5794 28.3263 60.1863 26.3328 60.1863 24.2303C60.1863 22.1279 60.5889 20.1248 61.3989 18.226C62.2042 16.3272 63.341 14.6556 64.8047 13.2161C66.2684 11.7766 68.0258 10.6354 70.0815 9.78304C72.1373 8.93069 74.4158 8.50925 76.9215 8.50925C78.5036 8.50925 79.9626 8.72234 81.2984 9.15325C82.6342 9.58416 83.8563 10.1524 84.96 10.8579C86.0636 11.5635 87.0442 12.378 87.911 13.3061C88.7779 14.2294 89.5121 15.2002 90.1184 16.2088L87.9489 17.672C86.7031 15.2523 85.3058 13.4765 83.7615 12.3495C82.2126 11.2226 80.4363 10.6591 78.4373 10.6591C76.7036 10.6591 75.0836 10.9716 73.5773 11.5919C72.071 12.2122 70.7636 13.1119 69.6505 14.291C68.5421 15.4701 67.6658 16.8954 67.0263 18.5669C66.3868 20.2385 66.0694 22.1279 66.0694 24.2303V24.2208Z" fill="#111111"/>
<path d="M100.321 39.0564H95.7551V5.52604L99.0093 4.23805H100.321V39.0564Z" fill="#111111"/>
<path d="M108.606 4.23805C108.962 4.23805 109.303 4.29488 109.63 4.41326C109.956 4.53164 110.241 4.69737 110.473 4.90572C110.71 5.11881 110.899 5.36031 111.041 5.63969C111.183 5.91433 111.254 6.21739 111.254 6.53465C111.254 6.83771 111.183 7.12656 111.041 7.40594C110.899 7.68058 110.71 7.92682 110.473 8.13517C110.236 8.34825 109.956 8.51399 109.63 8.64184C109.303 8.76969 108.962 8.83125 108.606 8.83125C108.251 8.83125 107.915 8.76969 107.597 8.64184C107.28 8.51872 107.001 8.34825 106.764 8.13517C106.527 7.92682 106.337 7.68058 106.195 7.40594C106.053 7.12656 105.982 6.83771 105.982 6.53465C105.982 6.21739 106.053 5.91433 106.195 5.63969C106.337 5.36031 106.527 5.11881 106.764 4.90572C107.001 4.69737 107.275 4.53164 107.597 4.41326C107.92 4.29488 108.256 4.23805 108.606 4.23805ZM106.385 16.8528L109.592 15.5411H110.927V39.0564H106.385V16.8528Z" fill="#111111"/>
<path d="M121.334 25.3052L132.892 16.0194H135.895L125.574 24.396L138.32 39.0564H132.314L121.334 26.4417V39.0564H116.768V5.52604L120.022 4.23805H121.334V25.3052Z" fill="#111111"/>
<path d="M156.647 39.0564H152.053V35.9027C151.513 36.3242 150.982 36.7456 150.461 37.1765C149.94 37.6027 149.376 37.9957 148.77 38.3508C148.164 38.706 147.491 38.9948 146.752 39.2221C146.013 39.4494 145.156 39.5631 144.18 39.5631C143.271 39.5631 142.451 39.4163 141.722 39.1227C140.987 38.8291 140.372 38.4266 139.865 37.9105C139.358 37.3991 138.97 36.7882 138.69 36.0827C138.411 35.3771 138.273 34.6195 138.273 33.8097C138.273 32.8153 138.472 31.9251 138.865 31.1343C139.258 30.3435 139.798 29.6332 140.481 29.0034C141.163 28.3737 141.954 27.8149 142.854 27.3272C143.754 26.8394 144.715 26.4038 145.743 26.0155C146.771 25.6272 147.823 25.2863 148.898 24.9927C149.973 24.6991 151.025 24.415 152.053 24.1498V22.7103C152.053 21.6685 151.948 20.7878 151.735 20.0727C151.527 19.3577 151.228 18.7753 150.84 18.3302C150.452 17.8851 149.987 17.5678 149.438 17.3737C148.893 17.1795 148.273 17.0848 147.581 17.0848C146.809 17.0848 146.174 17.1842 145.686 17.3879C145.198 17.5915 144.815 17.8567 144.54 18.1834C144.261 18.5149 144.071 18.8842 143.972 19.2914C143.872 19.7034 143.82 20.1296 143.82 20.5652C143.82 20.9677 143.787 21.356 143.721 21.7254C143.654 22.0947 143.536 22.4214 143.365 22.7103C143.195 22.9991 142.967 23.2217 142.669 23.3922C142.371 23.5626 142.001 23.6431 141.546 23.6431C140.841 23.6431 140.263 23.3874 139.817 22.8713C139.372 22.3599 139.15 21.7159 139.15 20.944C139.15 20.1722 139.396 19.4761 139.893 18.8132C140.391 18.1502 141.063 17.5773 141.911 17.099C142.759 16.6207 143.749 16.2419 144.876 15.9625C146.004 15.6879 147.188 15.5458 148.434 15.5458C149.95 15.5458 151.228 15.6926 152.271 15.9862C153.313 16.2798 154.161 16.6918 154.805 17.2221C155.454 17.7525 155.918 18.3965 156.207 19.1541C156.496 19.9118 156.638 20.7499 156.638 21.678V39.0611L156.647 39.0564ZM152.053 25.6319C151.058 25.935 150.025 26.3186 148.95 26.7826C147.875 27.2467 146.88 27.7723 145.971 28.3594C145.061 28.9466 144.313 29.6001 143.725 30.3151C143.138 31.0301 142.844 31.7925 142.844 32.5975C142.844 33.1515 142.948 33.6819 143.162 34.1885C143.375 34.6952 143.65 35.1356 143.995 35.5144C144.341 35.8932 144.734 36.1963 145.18 36.4236C145.625 36.6509 146.094 36.7645 146.582 36.7645C147.103 36.7645 147.595 36.6982 148.06 36.5609C148.524 36.4236 148.974 36.2437 149.41 36.0211C149.845 35.7938 150.286 35.5239 150.722 35.2161C151.157 34.9083 151.603 34.5816 152.057 34.2454V25.6414L152.053 25.6319Z" fill="#111111"/>
<path d="M180 39.0564H175.405V35.9027C174.865 36.3242 174.335 36.7456 173.814 37.1765C173.293 37.6027 172.729 37.9957 172.123 38.3508C171.516 38.706 170.844 38.9948 170.105 39.2221C169.366 39.4494 168.508 39.5631 167.533 39.5631C166.623 39.5631 165.804 39.4163 165.074 39.1227C164.34 38.8291 163.724 38.4266 163.217 37.9105C162.71 37.3991 162.322 36.7882 162.043 36.0827C161.763 35.3771 161.626 34.6195 161.626 33.8097C161.626 32.8153 161.825 31.9251 162.218 31.1343C162.611 30.3435 163.151 29.6332 163.833 29.0034C164.515 28.3737 165.306 27.8149 166.206 27.3272C167.106 26.8394 168.068 26.4038 169.096 26.0155C170.124 25.6272 171.175 25.2863 172.25 24.9927C173.326 24.6991 174.377 24.415 175.405 24.1498V22.7103C175.405 21.6685 175.301 20.7878 175.088 20.0727C174.875 19.3577 174.581 18.7753 174.193 18.3302C173.804 17.8851 173.34 17.5678 172.79 17.3737C172.246 17.1795 171.625 17.0848 170.934 17.0848C170.162 17.0848 169.527 17.1842 169.039 17.3879C168.551 17.5915 168.167 17.8567 167.893 18.1834C167.613 18.5149 167.424 18.8842 167.324 19.2914C167.225 19.7034 167.173 20.1296 167.173 20.5652C167.173 20.9677 167.139 21.356 167.073 21.7254C167.007 22.0947 166.888 22.4214 166.718 22.7103C166.547 22.9991 166.32 23.2217 166.022 23.3922C165.723 23.5626 165.354 23.6431 164.899 23.6431C164.193 23.6431 163.615 23.3874 163.17 22.8713C162.725 22.3599 162.502 21.7159 162.502 20.944C162.502 20.1722 162.748 19.4761 163.246 18.8132C163.743 18.1502 164.416 17.5773 165.264 17.099C166.112 16.6207 167.102 16.2419 168.229 15.9625C169.356 15.6879 170.54 15.5458 171.786 15.5458C173.302 15.5458 174.581 15.6926 175.623 15.9862C176.665 16.2798 177.513 16.6918 178.157 17.2221C178.806 17.7525 179.27 18.3965 179.559 19.1541C179.844 19.9118 179.99 20.7499 179.99 21.678V39.0611L180 39.0564ZM175.405 25.6319C174.41 25.935 173.378 26.3186 172.303 26.7826C171.227 27.2467 170.233 27.7723 169.323 28.3594C168.414 28.9466 167.665 29.6001 167.078 30.3151C166.49 31.0301 166.197 31.7925 166.197 32.5975C166.197 33.1515 166.301 33.6819 166.514 34.1885C166.727 34.6952 167.002 35.1356 167.348 35.5144C167.694 35.8932 168.087 36.1963 168.532 36.4236C168.977 36.6509 169.446 36.7645 169.934 36.7645C170.455 36.7645 170.948 36.6982 171.412 36.5609C171.876 36.4236 172.326 36.2437 172.762 36.0211C173.198 35.7938 173.638 35.5239 174.074 35.2161C174.51 34.9083 174.955 34.5816 175.41 34.2454V25.6414L175.405 25.6319Z" fill="#111111"/>
</g>
<defs>
<clipPath id="clip0_30_1022">
<rect width="180" height="44" fill="white"/>
</clipPath>
</defs>
</svg>
