<svg width="324" height="60" viewBox="0 0 324 60" fill="none" xmlns="http://www.w3.org/2000/svg">
<mask id="mask0_10_21" style="mask-type:luminance" maskUnits="userSpaceOnUse" x="0" y="0" width="324" height="60">
<path d="M323.333 0H0V60H323.333V0Z" fill="white"/>
</mask>
<g mask="url(#mask0_10_21)">
<path d="M88.5212 33.6827L87.8695 32.8878C87.165 31.9163 86.5308 31.4925 85.5622 31.4925H82.9907V27.2888H86.1082C88.1513 27.2888 89.1728 27.8717 90.2472 29.3377L91.1102 30.468C91.9028 28.8608 92.343 26.9708 92.343 24.869C92.343 21.7427 91.48 19.217 89.7717 17.221C88.0632 15.2252 85.8617 14.2538 83.114 14.2538C80.3665 14.2538 78.1297 15.2252 76.4212 17.221C74.7128 19.217 73.8498 21.7427 73.8498 24.869C73.8498 27.9953 74.7128 30.521 76.4212 32.517C78.1297 34.5128 80.3312 35.5372 83.114 35.5372C85.1572 35.5372 86.9712 34.9543 88.5387 33.7003L88.5212 33.6827ZM98.7012 35.2017V39.4583H95.8657C94.7383 39.4583 93.8225 39.2993 93.1885 39.0345C92.5368 38.7165 91.9557 38.169 91.4097 37.4625L91.2512 37.2505C88.9438 38.9285 86.2138 39.7233 83.0437 39.7233C80.296 39.7233 77.9007 39.0698 75.6992 37.7803C73.5503 36.491 71.8948 34.76 70.7147 32.4993C69.5347 30.2385 68.9535 27.7127 68.9535 24.8513C68.9535 21.99 69.5347 19.5172 70.7147 17.2563C71.8948 14.9956 73.568 13.2293 75.6992 11.9399C77.9007 10.6506 80.3137 9.99706 83.0437 9.99706C85.7735 9.99706 88.2393 10.6506 90.388 11.9399C92.5897 13.2293 94.1923 14.9956 95.4428 17.2563C96.623 19.5172 97.2042 22.043 97.2042 24.8513C97.2042 28.6135 96.1827 31.8457 94.1572 34.4245C94.6855 34.919 95.39 35.184 96.1298 35.184H98.7012V35.2017Z" fill="white"/>
<path d="M116.367 18.1395H120.876V39.4584H116.913L116.384 36.7737C114.782 38.7695 112.58 39.7234 109.833 39.7234C107.472 39.7234 105.535 39.0697 103.985 37.6214C102.382 36.173 101.467 33.5237 101.467 30.0265V18.1219H105.923V29.479C105.923 33.6827 107.596 35.7845 110.907 35.7845C114.218 35.7845 116.384 33.2057 116.384 28.79V18.1219L116.367 18.1395Z" fill="white"/>
<path d="M135.018 35.9435C136.85 35.9435 138.347 35.2547 139.527 33.9477C140.654 32.6582 141.183 30.9273 141.183 28.8962C141.183 26.8648 140.654 25.028 139.527 23.7387C138.347 22.3962 136.832 21.6897 135.018 21.6897C133.204 21.6897 131.689 22.3785 130.509 23.6857C129.382 24.975 128.854 26.706 128.854 28.8078C128.854 30.9097 129.382 32.6228 130.509 33.9653C131.689 35.2547 133.187 35.9612 135.018 35.9612V35.9435ZM141.799 18.1395H145.656V39.4583H141.729L141.2 36.2262C139.545 38.5398 137.237 39.7233 134.279 39.7233C131.32 39.7233 128.907 38.7518 127.04 36.7737C125.155 34.8307 124.257 32.199 124.257 28.8078C124.257 25.4165 125.226 22.9438 127.093 20.8948C128.977 18.899 131.39 17.8747 134.279 17.8747C137.167 17.8747 139.598 19.005 141.2 21.2658L141.799 18.1395Z" fill="white"/>
<path d="M169.733 27.6067V39.4407H165.224V27.9777C165.224 23.8798 163.516 21.7427 160.117 21.7427C156.524 21.7427 154.428 24.3745 154.428 28.7372V39.4583H149.972V18.1395H153.829L154.357 20.9478C155.96 18.899 158.285 17.8747 161.173 17.8747C165.841 17.8747 169.698 20.4533 169.698 27.5537V27.6067H169.733Z" fill="white"/>
<path d="M175.158 22.0607H171.458V18.1218H175.158V12.1519H179.667V18.1218H184.88V22.0607H179.667V33.2058C179.667 34.919 180.265 35.5195 181.973 35.5195H185.145V39.4583H180.952C176.918 39.4583 175.158 37.5685 175.158 33.7003V22.0783V22.0607Z" fill="white"/>
<path d="M202.898 18.1395H207.407V39.4584H203.48L202.952 36.7737C201.348 38.7695 199.147 39.7234 196.398 39.7234C194.038 39.7234 192.102 39.0697 190.498 37.6214C188.897 36.173 187.98 33.5237 187.98 30.0265V18.1219H192.488V29.479C192.488 33.6827 194.162 35.7845 197.42 35.7845C200.678 35.7845 202.898 33.2057 202.898 28.79V18.1219V18.1395Z" fill="white"/>
<path d="M243.83 27.1828V39.4583H239.322V27.4478C239.322 23.7387 237.823 21.7427 234.918 21.7427C233.35 21.7427 232.135 22.2727 231.218 23.4207C230.303 24.4982 229.88 25.9995 229.88 27.9423V39.4583H225.318V27.4478C225.318 23.7387 223.752 21.7427 220.81 21.7427C219.313 21.7427 218.062 22.3433 217.217 23.456C216.302 24.5865 215.878 26.1407 215.878 28.0307V39.4407H211.37V18.1218H215.28L215.773 20.9303C217.323 18.8813 219.365 17.857 221.99 17.857C224.948 17.857 227.362 19.0933 228.595 21.725C229.987 19.3053 232.452 17.857 235.833 17.857C240.237 17.857 243.83 20.3827 243.83 27.1652V27.1828Z" fill="white"/>
<path d="M252.9 14.4303V24.71H259.17C260.878 24.71 262.288 24.2155 263.238 23.3146C264.26 22.3961 264.807 21.1598 264.807 19.6055C264.807 18.0511 264.278 16.8148 263.238 15.8434C262.27 14.9249 260.878 14.448 259.17 14.448H252.9V14.4303ZM248.075 39.4583V10.2796H259.558C262.605 10.2796 265.07 11.0921 266.955 12.8054C268.787 14.4657 269.703 16.7265 269.703 19.5878C269.703 21.5306 269.21 23.244 268.205 24.71C267.185 26.2113 265.793 27.2358 264.067 27.8363L270.232 39.4583H264.86L259.277 28.9137H252.9V39.4583H248.075Z" fill="white"/>
<path d="M273.225 18.1395H277.735V39.4583H273.225V18.1395ZM275.533 15.1192C274.74 15.1192 274.088 14.8543 273.56 14.3597C273.032 13.8299 272.803 13.1763 272.803 12.4168C272.803 11.622 273.013 10.9685 273.56 10.421C274.088 9.9264 274.74 9.66147 275.533 9.66147C276.29 9.66147 276.923 9.9264 277.47 10.421C277.998 10.9508 278.28 11.6044 278.28 12.4168C278.28 13.1763 278.017 13.8122 277.47 14.3597C276.942 14.8543 276.29 15.1192 275.533 15.1192Z" fill="white"/>
<path d="M285.678 32.4463C285.837 34.7072 287.827 36.2085 290.997 36.2085C293.78 36.2085 295.612 35.131 295.612 33.4177C295.612 32.5523 295.188 31.9163 294.802 31.5808C294.59 31.3688 294.22 31.2628 293.727 31.0863C293.198 30.9273 292.758 30.8743 292.388 30.8213C292.072 30.7683 291.472 30.6623 290.68 30.5563H290.362C288.213 30.2915 286.822 30.0265 285.202 29.426C284.445 29.108 283.81 28.7725 283.335 28.3485C282.367 27.536 281.662 26.1937 281.662 24.4805C281.662 22.4845 282.472 20.8773 284.128 19.6232C285.73 18.4398 287.827 17.857 290.415 17.857C293.005 17.857 295.242 18.4398 296.915 19.6232C298.623 20.8597 299.487 22.5375 299.645 24.6393H295.242C295.135 23.668 294.66 22.8732 293.743 22.2197C292.882 21.6192 291.807 21.3012 290.468 21.3012C287.773 21.3012 286.065 22.3787 286.065 24.0918C286.065 25.1163 286.663 25.6638 287.457 26.0348C287.95 26.2467 289.058 26.4233 289.712 26.5293C290.08 26.5823 290.573 26.6353 291.208 26.6883C292.282 26.8472 293.18 27.0062 293.99 27.1122C294.748 27.2712 295.54 27.5008 296.35 27.8187C297.143 28.1367 297.795 28.5075 298.323 28.9492C299.292 29.8145 299.997 31.2098 299.997 33.0468C299.997 35.0957 299.133 36.703 297.478 37.8863C295.77 39.1228 293.622 39.7233 290.997 39.7233C288.09 39.7233 285.73 39.0698 283.968 37.7803C282.19 36.491 281.292 34.7248 281.222 32.464H285.678V32.4463Z" fill="white"/>
<path d="M318.613 26.4763C318.297 23.297 316.148 21.4778 312.977 21.4778C311.48 21.4778 310.23 21.9547 309.173 22.8732C308.098 23.7917 307.465 24.975 307.307 26.4763H318.683H318.632H318.613ZM305.352 36.756C303.413 34.7602 302.463 32.1283 302.463 28.8432C302.463 25.5578 303.378 22.8732 305.298 20.8773C307.235 18.8813 309.755 17.857 312.925 17.857C316.095 17.857 318.508 18.7753 320.375 20.6123C322.26 22.4492 323.228 24.922 323.333 28.0307C323.333 28.5605 323.28 29.161 323.175 29.7615H307.13V30.0265C307.183 31.8635 307.782 33.3118 308.838 34.3892C309.913 35.5197 311.303 36.0495 313.083 36.0495C315.83 36.0495 317.803 34.6542 318.455 32.2873H322.912C322.523 34.4952 321.467 36.2615 319.74 37.6215C318.032 39.0168 315.883 39.7233 313.312 39.7233C309.983 39.7233 307.358 38.6988 305.368 36.7737L305.352 36.756Z" fill="white"/>
<path d="M49.2448 52.7406H24.6223V60H49.2448V52.7406Z" fill="white"/>
<path d="M41.9533 42.09H7.29165V7.31233H41.9533V42.0723V42.09ZM24.6225 0C11.0079 0 0 11.0921 0 24.71C0 38.328 11.0079 49.42 24.6225 49.42C38.2372 49.42 49.245 38.381 49.245 24.71C49.245 11.0392 38.2018 0 24.6225 0Z" fill="white"/>
</g>
</svg>
