<svg width="964" height="268" viewBox="0 0 964 268" fill="none" xmlns="http://www.w3.org/2000/svg">
<path d="M200.198 33.6171C119.038 114.776 119.038 114.776 37.8748 195.939C-6.94849 151.116 -6.94849 78.44 37.8748 33.6171C82.6981 -11.2057 155.375 -11.2057 200.198 33.6171Z" fill="url(#paint0_radial_30_1338)"/>
<path d="M0 233.822C81.1596 152.663 81.1597 152.663 162.323 71.5C207.147 116.323 207.147 188.999 162.323 233.822C117.496 278.644 44.8233 278.644 0 233.822Z" fill="url(#paint1_radial_30_1338)"/>
<path d="M313.585 164.531C315.131 192.888 340.137 210.16 377.001 210.16C412.576 210.16 437.324 193.403 437.324 167.109C437.324 137.206 412.061 130.245 381.641 127.152C362.565 124.832 351.222 123.801 351.222 113.747C351.222 105.24 360.503 100.084 374.681 100.084C389.375 100.084 399.429 106.529 400.46 117.098H435.262C433.457 90.0306 408.967 74.3056 373.392 74.3056C339.364 74.0478 316.42 91.3196 316.42 117.614C316.42 144.939 340.395 151.9 371.33 155.509C392.726 158.344 401.749 159.118 401.749 169.945C401.749 179.225 392.469 184.123 377.259 184.123C359.471 184.123 349.418 176.132 348.129 164.531H313.585Z" fill="#060929"/>
<path d="M533.322 74.5469C512.957 74.5469 500.841 82.2805 492.334 92.5921L488.982 76.0936H457.274V208.596H493.623V140.798C493.623 117.855 504.45 104.45 523.269 104.45C541.572 104.45 550.079 116.308 550.079 138.736V208.596H586.427V135.127C586.427 89.7564 561.937 74.5469 533.322 74.5469Z" fill="#060929"/>
<path d="M628.434 61.9257C640.292 61.9257 649.573 53.1609 649.573 41.5605C649.573 29.7023 640.292 20.9375 628.434 20.9375C616.576 20.9375 607.295 29.7023 607.295 41.5605C607.295 53.1609 616.576 61.9257 628.434 61.9257ZM610.131 208.607H646.737V76.1041H610.131V208.607Z" fill="#060929"/>
<path d="M748.668 74.5487C729.85 74.5487 716.444 83.0558 707.937 94.3984L704.328 76.0955H672.62V260.156H708.968V191.842C717.476 202.669 730.623 210.145 748.926 210.145C784.501 210.145 810.28 183.851 810.28 142.605C810.28 100.843 784.501 74.2909 748.668 74.5487ZM740.677 180.499C720.827 180.499 708.453 164.774 708.453 142.089C708.453 119.662 720.827 104.194 740.677 104.194C760.527 104.194 773.416 119.662 773.416 142.089C773.416 164.774 760.527 180.499 740.677 180.499Z" fill="#060929"/>
<path d="M927.427 92.5934C918.92 81.7663 905.773 74.5482 887.47 74.5482C852.152 74.5482 826.115 101.1 826.115 142.089C826.115 184.108 852.152 210.145 887.727 210.145C906.804 210.145 919.693 201.638 928.458 190.295L932.067 208.598H963.775V28.1465H927.427V92.5934ZM895.719 180.499C875.869 180.499 863.237 165.032 863.237 142.346C863.237 119.661 875.869 104.194 895.719 104.194C915.569 104.194 927.943 119.919 927.943 142.604C927.943 165.032 915.569 180.499 895.719 180.499Z" fill="#060929"/>
<defs>
<radialGradient id="paint0_radial_30_1338" cx="0" cy="0" r="1" gradientTransform="matrix(-28.6946 174.079 -587.245 -96.7977 115.876 -3.54459)" gradientUnits="userSpaceOnUse">
<stop stop-color="#B4FFE8"/>
<stop offset="0.134777" stop-color="#6DFFD2"/>
<stop offset="1" stop-color="#02E9A3"/>
</radialGradient>
<radialGradient id="paint1_radial_30_1338" cx="0" cy="0" r="1" gradientTransform="matrix(-68.8658 172.166 -281.441 -112.573 157.961 84.4619)" gradientUnits="userSpaceOnUse">
<stop offset="0.0358168" stop-color="#04D996"/>
<stop offset="0.202487" stop-color="#04CD8F"/>
<stop offset="1" stop-color="#00A773"/>
</radialGradient>
</defs>
</svg>
