<svg width="142" height="68" viewBox="0 0 142 68" fill="none" xmlns="http://www.w3.org/2000/svg">
<path d="M123.079 27.4001V8.62008H111.289L112.769 6.08008H125.669V24.4001L123.079 27.4001Z" fill="white"/>
<path d="M123.079 27.4001V8.62008H111.289L112.769 6.08008H125.669V24.4001L123.079 27.4001Z" fill="white"/>
<path d="M92.0083 16.79C92.3183 16.79 95.2784 18.92 100.888 23.19L108.328 14.18L108.858 13.85C109.248 13.85 112.208 15.94 117.738 20.12L118.328 20.64L118.588 21.1L118.198 21.82L110.298 31.35C109.998 31.78 109.748 32 109.578 32C109.268 32 108.078 31.23 105.988 29.68C103.898 28.14 102.138 26.71 100.698 25.4L93.3184 34.28C93.0184 34.71 92.7684 34.93 92.5984 34.93C92.2884 34.93 91.1883 34.21 89.2983 32.78C87.3983 31.34 85.5384 29.82 83.7084 28.21C83.2784 27.9 83.0583 27.64 83.0583 27.43L83.4483 26.84L91.4783 17.11L91.9984 16.78L92.0083 16.79ZM99.7784 0.0100021C100.128 0.0100021 102.978 2.03 108.328 6.08L108.918 6.6L109.178 7.06L108.788 7.78L101.208 17.18C100.908 17.61 100.658 17.83 100.488 17.83C100.188 17.83 99.0184 17.07 96.9984 15.55C94.9784 14.03 93.2484 12.61 91.8083 11.3C91.3783 11 91.1484 10.73 91.1484 10.52L99.2484 0.330002L99.7784 0V0.0100021Z" fill="white"/>
<path d="M92.0083 16.79C92.3183 16.79 95.2784 18.92 100.888 23.19L108.328 14.18L108.858 13.85C109.248 13.85 112.208 15.94 117.738 20.12L118.328 20.64L118.588 21.1L118.198 21.82L110.298 31.35C109.998 31.78 109.748 32 109.578 32C109.268 32 108.078 31.23 105.988 29.68C103.898 28.14 102.138 26.71 100.698 25.4L93.3184 34.28C93.0184 34.71 92.7684 34.93 92.5984 34.93C92.2884 34.93 91.1883 34.21 89.2983 32.78C87.3983 31.34 85.5384 29.82 83.7084 28.21C83.2784 27.9 83.0583 27.64 83.0583 27.43L83.4483 26.84L91.4783 17.11L91.9984 16.78L92.0083 16.79ZM99.7784 0.0100021C100.128 0.0100021 102.978 2.03 108.328 6.08L108.918 6.6L109.178 7.06L108.788 7.78L101.208 17.18C100.908 17.61 100.658 17.83 100.488 17.83C100.188 17.83 99.0184 17.07 96.9984 15.55C94.9784 14.03 93.2484 12.61 91.8083 11.3C91.3783 11 91.1484 10.73 91.1484 10.52L99.2484 0.330002L99.7784 0V0.0100021Z" fill="white"/>
<mask id="mask0_15_43" style="mask-type:luminance" maskUnits="userSpaceOnUse" x="83" y="0" width="36" height="35">
<path d="M92.0083 16.79C92.3183 16.79 95.2784 18.92 100.888 23.19L108.328 14.18L108.858 13.85C109.248 13.85 112.208 15.94 117.738 20.12L118.328 20.64L118.588 21.1L118.198 21.82L110.298 31.35C109.998 31.78 109.748 32 109.578 32C109.268 32 108.078 31.23 105.988 29.68C103.898 28.14 102.138 26.71 100.698 25.4L93.3184 34.28C93.0184 34.71 92.7684 34.93 92.5984 34.93C92.2884 34.93 91.1883 34.21 89.2983 32.78C87.3983 31.34 85.5384 29.82 83.7084 28.21C83.2784 27.9 83.0583 27.64 83.0583 27.43L83.4483 26.84L91.4783 17.11L91.9984 16.78L92.0083 16.79ZM99.7784 0.0100021C100.128 0.0100021 102.978 2.03 108.328 6.08L108.918 6.6L109.178 7.06L108.788 7.78L101.208 17.18C100.908 17.61 100.658 17.83 100.488 17.83C100.188 17.83 99.0184 17.07 96.9984 15.55C94.9784 14.03 93.2484 12.61 91.8083 11.3C91.3783 11 91.1484 10.73 91.1484 10.52L99.2484 0.330002L99.7784 0V0.0100021Z" fill="white"/>
</mask>
<g mask="url(#mask0_15_43)">
<path d="M118.588 8.50011L98.8181 -4.66988L118.588 -14.8799V8.50011Z" fill="white"/>
<path d="M118.588 8.50011L98.8181 -4.66988L118.588 -14.8799V8.50011Z" fill="white"/>
<path d="M98.8181 -4.66992L109.978 22.1201L118.588 8.50008L98.8181 -4.66992Z" fill="white"/>
<path d="M98.8181 -4.66992L109.978 22.1201L118.588 8.50008L98.8181 -4.66992Z" fill="white"/>
<path d="M118.588 35.99L109.978 22.12L118.588 8.5V35.99Z" fill="white"/>
<path d="M118.588 35.99L109.978 22.12L118.588 8.5V35.99Z" fill="white"/>
<path d="M82.8673 17.8106L80.9373 -13.4395L98.8173 -4.66945L82.8673 17.8106Z" fill="white"/>
<path d="M82.8673 17.8106L80.9373 -13.4395L98.8173 -4.66945L82.8673 17.8106Z" fill="white"/>
<path d="M109.979 22.1201L82.8689 17.8101L98.8189 -4.66992L109.979 22.1201Z" fill="white"/>
<path d="M109.979 22.1201L82.8689 17.8101L98.8189 -4.66992L109.979 22.1201Z" fill="white"/>
<path d="M104.478 50.1001L109.978 22.1201L118.588 35.9901L104.478 50.1001Z" fill="white"/>
<path d="M104.478 50.1001L109.978 22.1201L118.588 35.9901L104.478 50.1001Z" fill="white"/>
<path d="M82.8689 17.8105L93.1489 38.8605L109.979 22.1205L82.8689 17.8105Z" fill="white"/>
<path d="M82.8689 17.8105L93.1489 38.8605L109.979 22.1205L82.8689 17.8105Z" fill="white"/>
<path d="M104.478 50.1001L93.148 38.8601L109.978 22.1201L104.478 50.1001Z" fill="white"/>
<path d="M104.478 50.1001L93.148 38.8601L109.978 22.1201L104.478 50.1001Z" fill="white"/>
<path d="M69.6873 34.2405L82.8673 17.8105L93.1473 38.8605L69.6873 34.2405Z" fill="white"/>
<path d="M69.6873 34.2405L82.8673 17.8105L93.1473 38.8605L69.6873 34.2405Z" fill="white"/>
<path d="M77.9673 63.5002L69.6873 34.2402L93.1473 38.8602L77.9673 63.5002Z" fill="white"/>
<path d="M77.9673 63.5002L69.6873 34.2402L93.1473 38.8602L77.9673 63.5002Z" fill="white"/>
</g>
<mask id="mask1_15_43" style="mask-type:luminance" maskUnits="userSpaceOnUse" x="78" y="8" width="64" height="58">
<path d="M141.458 64.4301L78.5684 65.2801V8.62012H141.458V64.4301Z" fill="white"/>
</mask>
<g mask="url(#mask1_15_43)">
<path d="M134.918 24.01C134.268 22.19 133.378 21.5 132.388 21.5C129.888 21.5 126.748 25.84 125.168 27.49C121.648 31.17 117.678 34.42 113.388 37.15C106.778 41.35 97.2884 46.16 88.8184 46.16C87.5184 46.16 86.2484 46.05 85.0184 45.8C75.8984 44 72.1884 34.58 69.7584 26.68C71.0384 30.84 68.4584 36.23 69.7584 40.45C71.5884 46.41 73.8984 53.07 79.1084 56.94C81.8984 59.01 85.0384 59.77 88.2484 59.77C92.0784 59.77 96.0184 58.7 99.6484 57.48C106.528 55.18 113.038 51.63 118.728 47.12C121.888 44.61 124.658 41.8 127.368 38.82C128.818 37.23 131.008 35.37 132.678 35.37C133.298 35.37 133.838 35.66 134.208 36.17C134.588 36.69 134.678 37.31 134.708 37.94C134.738 38.67 134.758 39.39 134.798 40.12C134.848 41.1 134.878 42.08 134.978 43.05C134.958 40.54 135.248 38.13 135.478 35.71C135.708 33.28 135.878 30.83 135.738 28.39C135.648 26.91 135.448 25.41 134.948 24.01H134.918Z" fill="white"/>
<path d="M134.918 24.01C134.268 22.19 133.378 21.5 132.388 21.5C129.888 21.5 126.748 25.84 125.168 27.49C121.648 31.17 117.678 34.42 113.388 37.15C106.778 41.35 97.2884 46.16 88.8184 46.16C87.5184 46.16 86.2484 46.05 85.0184 45.8C75.8984 44 72.1884 34.58 69.7584 26.68C71.0384 30.84 68.4584 36.23 69.7584 40.45C71.5884 46.41 73.8984 53.07 79.1084 56.94C81.8984 59.01 85.0384 59.77 88.2484 59.77C92.0784 59.77 96.0184 58.7 99.6484 57.48C106.528 55.18 113.038 51.63 118.728 47.12C121.888 44.61 124.658 41.8 127.368 38.82C128.818 37.23 131.008 35.37 132.678 35.37C133.298 35.37 133.838 35.66 134.208 36.17C134.588 36.69 134.678 37.31 134.708 37.94C134.738 38.67 134.758 39.39 134.798 40.12C134.848 41.1 134.878 42.08 134.978 43.05C134.958 40.54 135.248 38.13 135.478 35.71C135.708 33.28 135.878 30.83 135.738 28.39C135.648 26.91 135.448 25.41 134.948 24.01H134.918Z" fill="white"/>
</g>
<path d="M123.079 45.3401V65.2801H78.5691V8.62008H89.4891L91.5091 6.08008H75.8691V67.8201H125.669V42.9301L123.079 45.3401Z" fill="white"/>
<path d="M123.079 45.3401V65.2801H78.5691V8.62008H89.4891L91.5091 6.08008H75.8691V67.8201H125.669V42.9301L123.079 45.3401Z" fill="white"/>
<path d="M6.88 38.7796C6.88 39.7796 6.73 40.4896 6.43 40.8796C6.1 41.3396 5.47 41.5696 4.54 41.5696L0 41.5896V46.9896H7.34C8.76 46.9896 9.92 46.5396 10.82 45.6396C11.72 44.7396 12.17 43.4796 12.17 41.8496V20.8096H6.88V38.7696V38.7796Z" fill="white"/>
<path d="M6.88 38.7796C6.88 39.7796 6.73 40.4896 6.43 40.8796C6.1 41.3396 5.47 41.5696 4.54 41.5696L0 41.5896V46.9896H7.34C8.76 46.9896 9.92 46.5396 10.82 45.6396C11.72 44.7396 12.17 43.4796 12.17 41.8496V20.8096H6.88V38.7696V38.7796Z" fill="white"/>
<path d="M24.832 47.0488V48.6788H22.162V55.8488H20.242V48.6788H17.582V47.0488H24.832Z" fill="white"/>
<path d="M24.832 47.0488V48.6788H22.162V55.8488H20.242V48.6788H17.582V47.0488H24.832Z" fill="white"/>
<path d="M33.3306 47.0488V55.8488H31.4106V52.0188H27.8106V55.8488H25.8906V47.0488H27.8106V50.3888H31.4106V47.0488H33.3306Z" fill="white"/>
<path d="M33.3306 47.0488V55.8488H31.4106V52.0188H27.8106V55.8488H25.8906V47.0488H27.8106V50.3888H31.4106V47.0488H33.3306Z" fill="white"/>
<path d="M41.6312 47.0491V48.6791H36.9512V50.5491H41.2512V52.0591H36.9512V54.2091H41.7212V55.8391H35.0312V47.0391H41.6312V47.0491Z" fill="white"/>
<path d="M41.6312 47.0491V48.6791H36.9512V50.5491H41.2512V52.0591H36.9512V54.2091H41.7212V55.8391H35.0312V47.0391H41.6312V47.0491Z" fill="white"/>
<path d="M52.5916 47.0488V55.8488H50.7716V53.2088C50.7716 51.7888 50.8116 50.3088 50.8916 48.7488C50.6116 49.8888 50.3116 50.9088 49.9916 51.8288L48.6216 55.8488H47.1116L45.7016 51.9188C45.3916 51.0488 45.0916 50.0088 44.8116 48.7988C44.8816 50.5188 44.9216 51.9288 44.9216 53.0188V55.8588H43.1016V47.0588H45.8416L47.1616 50.8788C47.4416 51.7088 47.6916 52.6388 47.8916 53.6688C48.0716 52.7788 48.3216 51.8388 48.6516 50.8688L49.9116 47.0688H52.6216L52.5916 47.0488Z" fill="white"/>
<path d="M52.5916 47.0488V55.8488H50.7716V53.2088C50.7716 51.7888 50.8116 50.3088 50.8916 48.7488C50.6116 49.8888 50.3116 50.9088 49.9916 51.8288L48.6216 55.8488H47.1116L45.7016 51.9188C45.3916 51.0488 45.0916 50.0088 44.8116 48.7988C44.8816 50.5188 44.9216 51.9288 44.9216 53.0188V55.8588H43.1016V47.0588H45.8416L47.1616 50.8788C47.4416 51.7088 47.6916 52.6388 47.8916 53.6688C48.0716 52.7788 48.3216 51.8388 48.6516 50.8688L49.9116 47.0688H52.6216L52.5916 47.0488Z" fill="white"/>
<path d="M58.8029 47.0293L62.1429 55.8493H60.1229L59.4229 53.8793H56.1529L55.4429 55.8493H53.4629L56.8129 47.0293H58.8029ZM58.9629 52.4693L58.3929 50.8793C58.1329 50.1493 57.9329 49.5093 57.8029 48.9693C57.6529 49.4893 57.4529 50.1293 57.1829 50.8793L56.6129 52.4693H58.9529H58.9629Z" fill="white"/>
<path d="M58.8029 47.0293L62.1429 55.8493H60.1229L59.4229 53.8793H56.1529L55.4429 55.8493H53.4629L56.8129 47.0293H58.8029ZM58.9629 52.4693L58.3929 50.8793C58.1329 50.1493 57.9329 49.5093 57.8029 48.9693C57.6529 49.4893 57.4529 50.1293 57.1829 50.8793L56.6129 52.4693H58.9529H58.9629Z" fill="white"/>
<path d="M62.9729 47.0488H67.2329C68.0729 47.0488 68.7229 47.1788 69.1729 47.4488C69.9429 47.8988 70.3229 48.5988 70.3229 49.5388C70.3229 50.2088 70.1229 50.7488 69.7129 51.1788C69.4929 51.4088 69.2329 51.5788 68.9229 51.6888C69.3129 51.7888 69.6129 51.9988 69.8329 52.3388C70.0029 52.5888 70.1129 52.9388 70.1729 53.3688C70.1929 53.4888 70.2329 53.9088 70.2929 54.5988C70.3429 55.2088 70.4329 55.5888 70.5529 55.7388L70.6329 55.8388H68.6329C68.5829 55.7388 68.5429 55.6088 68.5029 55.4488C68.4729 55.3188 68.4329 54.8388 68.3729 54.0288C68.3129 53.3088 68.1129 52.8288 67.7529 52.6088C67.5129 52.4588 67.1329 52.3888 66.6129 52.3888H64.8829V55.8488H62.9629V47.0488H62.9729ZM64.8929 48.5588V50.9788H66.7229C67.3129 50.9788 67.7329 50.8988 67.9729 50.7288C68.2729 50.5188 68.4329 50.1988 68.4329 49.7588C68.4329 49.2388 68.2229 48.8888 67.8129 48.6988C67.5929 48.5988 67.2529 48.5488 66.8129 48.5488H64.8929V48.5588Z" fill="white"/>
<path d="M62.9729 47.0488H67.2329C68.0729 47.0488 68.7229 47.1788 69.1729 47.4488C69.9429 47.8988 70.3229 48.5988 70.3229 49.5388C70.3229 50.2088 70.1229 50.7488 69.7129 51.1788C69.4929 51.4088 69.2329 51.5788 68.9229 51.6888C69.3129 51.7888 69.6129 51.9988 69.8329 52.3388C70.0029 52.5888 70.1129 52.9388 70.1729 53.3688C70.1929 53.4888 70.2329 53.9088 70.2929 54.5988C70.3429 55.2088 70.4329 55.5888 70.5529 55.7388L70.6329 55.8388H68.6329C68.5829 55.7388 68.5429 55.6088 68.5029 55.4488C68.4729 55.3188 68.4329 54.8388 68.3729 54.0288C68.3129 53.3088 68.1129 52.8288 67.7529 52.6088C67.5129 52.4588 67.1329 52.3888 66.6129 52.3888H64.8829V55.8488H62.9629V47.0488H62.9729ZM64.8929 48.5588V50.9788H66.7229C67.3129 50.9788 67.7329 50.8988 67.9729 50.7288C68.2729 50.5188 68.4329 50.1988 68.4329 49.7588C68.4329 49.2388 68.2229 48.8888 67.8129 48.6988C67.5929 48.5988 67.2529 48.5488 66.8129 48.5488H64.8929V48.5588Z" fill="white"/>
<path d="M60.3302 18.2095C60.4502 18.2095 61.6302 19.0595 63.8702 20.7595L66.8402 17.1695L67.0502 17.0395C67.2102 17.0395 68.3902 17.8695 70.5902 19.5395L70.8202 19.7495L70.9202 19.9295L70.7602 20.2195L67.6102 24.0195C67.4902 24.1895 67.3902 24.2795 67.3202 24.2795C67.2002 24.2795 66.7202 23.9695 65.8902 23.3595C65.0602 22.7395 64.3502 22.1695 63.7802 21.6495L60.8402 25.1895C60.7202 25.3595 60.6202 25.4495 60.5502 25.4495C60.4302 25.4495 59.9902 25.1595 59.2302 24.5895C58.4702 24.0195 57.7302 23.4095 57.0002 22.7695C56.8302 22.6495 56.7402 22.5395 56.7402 22.4595L56.9002 22.2295L60.1002 18.3495L60.3102 18.2195L60.3302 18.2095ZM63.4302 11.5195C63.5702 11.5195 64.7102 12.3295 66.8402 13.9395L67.0802 14.1495L67.1802 14.3295L67.0202 14.6195L64.0002 18.3695C63.8802 18.5395 63.7802 18.6295 63.7102 18.6295C63.5902 18.6295 63.1202 18.3295 62.3202 17.7195C61.5102 17.1095 60.8202 16.5495 60.2502 16.0295C60.0802 15.9095 59.9902 15.7995 59.9902 15.7195L63.2202 11.6595L63.4302 11.5295V11.5195Z" fill="white"/>
<path d="M60.3302 18.2095C60.4502 18.2095 61.6302 19.0595 63.8702 20.7595L66.8402 17.1695L67.0502 17.0395C67.2102 17.0395 68.3902 17.8695 70.5902 19.5395L70.8202 19.7495L70.9202 19.9295L70.7602 20.2195L67.6102 24.0195C67.4902 24.1895 67.3902 24.2795 67.3202 24.2795C67.2002 24.2795 66.7202 23.9695 65.8902 23.3595C65.0602 22.7395 64.3502 22.1695 63.7802 21.6495L60.8402 25.1895C60.7202 25.3595 60.6202 25.4495 60.5502 25.4495C60.4302 25.4495 59.9902 25.1595 59.2302 24.5895C58.4702 24.0195 57.7302 23.4095 57.0002 22.7695C56.8302 22.6495 56.7402 22.5395 56.7402 22.4595L56.9002 22.2295L60.1002 18.3495L60.3102 18.2195L60.3302 18.2095ZM63.4302 11.5195C63.5702 11.5195 64.7102 12.3295 66.8402 13.9395L67.0802 14.1495L67.1802 14.3295L67.0202 14.6195L64.0002 18.3695C63.8802 18.5395 63.7802 18.6295 63.7102 18.6295C63.5902 18.6295 63.1202 18.3295 62.3202 17.7195C61.5102 17.1095 60.8202 16.5495 60.2502 16.0295C60.0802 15.9095 59.9902 15.7995 59.9902 15.7195L63.2202 11.6595L63.4302 11.5295V11.5195Z" fill="white"/>
<path d="M65.6106 26.9399V34.8099C65.6106 35.9599 65.2906 36.6799 64.6506 36.9599C64.3306 37.0999 63.5506 37.1699 62.3106 37.1499L59.6306 37.1299V37.1499H49.6806L46.6606 37.1299V26.8399H30.1406V37.1499H24.3106C23.4006 37.1499 22.7606 37.0099 22.3706 36.7399C21.8906 36.3899 21.6506 35.7499 21.6506 34.8299V15.1299H16.3906V37.1999C16.3906 40.5999 18.1506 42.2899 21.6706 42.2899H48.2606V42.3099H61.2906V42.2899H65.5006C69.0506 42.2899 70.8306 40.5599 70.8306 37.0999V26.9399H65.5906H65.6106ZM41.4606 37.0999H40.1106C40.0106 37.1099 39.9006 37.1199 39.7806 37.1199H35.8106V37.0999H35.4906V32.0499H35.8106V32.0299H39.7806C39.9006 32.0299 40.0106 32.0299 40.1106 32.0499H41.4606V37.0999Z" fill="white"/>
<path d="M65.6106 26.9399V34.8099C65.6106 35.9599 65.2906 36.6799 64.6506 36.9599C64.3306 37.0999 63.5506 37.1699 62.3106 37.1499L59.6306 37.1299V37.1499H49.6806L46.6606 37.1299V26.8399H30.1406V37.1499H24.3106C23.4006 37.1499 22.7606 37.0099 22.3706 36.7399C21.8906 36.3899 21.6506 35.7499 21.6506 34.8299V15.1299H16.3906V37.1999C16.3906 40.5999 18.1506 42.2899 21.6706 42.2899H48.2606V42.3099H61.2906V42.2899H65.5006C69.0506 42.2899 70.8306 40.5599 70.8306 37.0999V26.9399H65.5906H65.6106ZM41.4606 37.0999H40.1106C40.0106 37.1099 39.9006 37.1199 39.7806 37.1199H35.8106V37.0999H35.4906V32.0499H35.8106V32.0299H39.7806C39.9006 32.0299 40.0106 32.0299 40.1106 32.0499H41.4606V37.0999Z" fill="white"/>
</svg>
