<svg xmlns="http://www.w3.org/2000/svg" xmlns:xlink="http://www.w3.org/1999/xlink" width="373.96" height="127.47" viewBox="0 0 373.96 127.47"><defs><clipPath id="a" transform="translate(-56.17 -56.33)"><rect width="486.93" height="240.74" fill="none"/></clipPath></defs><g clip-path="url(#a)"><path d="M317.58,170H302.27V99.41h15.31Z" transform="translate(-56.17 -56.33)" fill="#f44e27"/><path d="M430.13,113.18v13.27h-13c-9.07,0-11.92,5.36-11.92,14V170H389.9V113.18h15.3v10.39c1.85-4.72,7.59-10.39,15.06-10.39Z" transform="translate(-56.17 -56.33)" fill="#f44e27"/><path d="M353.74,111.88a29.73,29.73,0,1,0,29.72,29.72A29.73,29.73,0,0,0,353.74,111.88Zm0,45.77a16,16,0,1,1,16-16.05A16,16,0,0,1,353.74,157.65Z" transform="translate(-56.17 -56.33)" fill="#f44e27"/><polygon points="170.56 56.85 159.93 56.85 142.13 74.64 124.34 56.85 113.71 56.85 113.71 67.49 131.5 85.28 113.71 103.07 113.71 113.71 124.35 113.71 142.13 95.92 159.92 113.71 170.56 113.71 170.56 103.07 152.77 85.28 170.56 67.49 170.56 56.85" fill="#f44e27"/><path d="M267.11,111.88c-6.71,0-14.67,3.92-17.51,8.28v-7H234.3V183.8h15.31V163.05c2.89,4.4,10.7,8.28,17.5,8.28,16.42,0,28.73-13.31,28.73-29.72S283.53,111.88,267.11,111.88Zm-1,45.77a16,16,0,1,1,16-16A16,16,0,0,1,266.11,157.65Z" transform="translate(-56.17 -56.33)" fill="#f44e27"/><path d="M125,136a101.49,101.49,0,0,0,44.91-79.7,101.52,101.52,0,0,0-79.71,44.91,43,43,0,0,0-34,8.35v7.23A53.16,53.16,0,0,1,109.38,170h7.24A43.05,43.05,0,0,0,125,136Zm6.88-54.38a12.7,12.7,0,1,1-12.7,12.7A12.7,12.7,0,0,1,131.85,81.65Z" transform="translate(-56.17 -56.33)" fill="#f44e27"/><path d="M84.2,156a14,14,0,1,0-28,0h0v14h14a14,14,0,0,0,14-14Z" transform="translate(-56.17 -56.33)" fill="#f44e27"/></g></svg>