<svg width="172" height="85" viewBox="0 0 172 85" fill="none" xmlns="http://www.w3.org/2000/svg">
<path d="M31.5741 17.4404C30.7603 17.4816 30.204 18.0482 29.9156 19.1505L21.7156 50.1271C21.1387 52.3316 20.1085 54.4846 18.6251 56.5862C17.1314 58.6877 15.102 59.8002 12.5369 59.9239C10.3324 60.0475 8.68418 59.5324 7.60252 58.3889C6.52086 57.2455 5.98517 55.9372 5.98517 54.4743C5.98517 53.0424 6.51054 51.8166 7.55099 50.7658C8.59144 49.7254 9.82763 49.2103 11.2595 49.2103C12.9284 49.2103 14.4633 49.9623 15.854 51.4766C16.8326 52.5789 17.6877 53.1249 18.4294 53.1249C19.1196 53.1249 19.6553 52.7643 20.0158 52.0535C20.3867 51.3427 20.706 50.4053 20.9945 49.2721L21.4889 47.4384H15.6068C14.0513 47.4384 12.7945 47.0882 11.8158 46.398C10.8372 45.7078 10.0749 44.3583 9.54949 42.3598L3.43039 19.3977C3.05953 18.0894 2.49295 17.4404 1.72033 17.4404H0.18542L0 16.8326H17.5126L17.698 17.4404H16.1631C15.5553 17.4816 15.2462 17.8113 15.2462 18.4191C15.2462 18.5839 15.2874 18.8311 15.3698 19.1505L22.1688 44.863L28.9678 19.2741C29.0502 18.862 29.0914 18.6045 29.0914 18.4809C29.0914 17.8319 28.803 17.4816 28.2364 17.4404H26.6397L26.8251 16.8326H33.3151L33.1297 17.4404H31.5947H31.5741Z" fill="#708E41"/>
<path d="M58.6364 18.213C61.3663 19.6656 63.5399 21.6125 65.1573 24.0643C66.7643 26.5161 67.5781 29.1841 67.5781 32.0892C67.5781 35.0663 66.8673 37.7859 65.4354 40.2274C64.0035 42.6791 61.9432 44.6158 59.2545 46.0477C56.5658 47.4796 53.4135 48.1904 49.8286 48.1904C46.2437 48.1904 43.0296 47.4796 40.3409 46.0477C37.6522 44.6158 35.5919 42.6894 34.1909 40.2583C32.7796 37.8271 32.0791 35.1075 32.0791 32.0892C32.0791 29.0708 32.8208 26.4542 34.3145 24.0025C35.8083 21.5507 37.8995 19.614 40.5882 18.1821C43.2768 16.7502 46.3673 16.0394 49.8286 16.0394C52.9706 16.0394 55.9065 16.7605 58.6467 18.213H58.6364ZM54.0419 44.111C54.6497 42.298 54.9588 39.9183 54.9588 36.9824C54.9588 35.2311 54.8351 33.4078 54.5879 31.5329C54.2583 28.9163 53.7535 26.5367 53.053 24.3733C52.3628 22.21 51.5696 20.5 50.6939 19.2329C49.8183 17.9658 48.953 17.3374 48.0877 17.3374C47.0266 17.3374 46.1922 18.2542 45.5741 20.0879C44.9663 21.9216 44.6573 24.3115 44.6573 27.2475C44.6573 28.9575 44.7809 30.7809 45.0281 32.697C45.3578 35.3135 45.8728 37.6932 46.5939 39.8565C47.3047 42.0198 48.0876 43.7196 48.953 44.9661C49.808 46.2125 50.6733 46.8306 51.5284 46.8306C52.5894 46.8306 53.4238 45.9241 54.0419 44.111Z" fill="#708E41"/>
<path d="M96.7723 47.4386C95.3404 47.3974 94.2278 47.0986 93.4346 46.5526C92.6413 45.9963 92.1778 44.925 92.0542 43.3386C91.5597 44.2348 90.478 45.1413 88.8092 46.0582C87.13 46.975 85.3994 47.5004 83.6069 47.624C80.3414 47.83 77.7248 47.1295 75.7675 45.5431C73.8102 43.9464 72.8315 40.825 72.8315 36.179V24.2396C72.8315 23.3845 72.5637 22.7664 72.0383 22.4059C71.5027 22.035 70.8537 21.8805 70.0811 21.9114V21.417C72.2032 21.417 74.6652 20.9431 77.4569 20.0056C80.2486 19.0682 82.6077 18.0072 84.5238 16.8225L84.771 17.1315V38.2496C84.771 40.7014 85.08 42.4526 85.6878 43.5137C86.2956 44.5747 87.0785 45.1001 88.016 45.1001C88.9534 45.1001 89.7878 44.7293 90.6532 43.9979C91.5082 43.2665 91.9821 42.5453 92.0645 41.8551V24.219C92.0645 23.3639 91.7966 22.7458 91.2713 22.3853C90.7356 22.0144 90.0866 21.8599 89.314 21.8908V21.3964C91.4361 21.3964 93.8981 20.9225 96.6898 19.985C99.4815 19.0476 101.841 17.9866 103.757 16.8019L104.004 17.1109V45.028C104.004 45.5637 104.107 45.9861 104.313 46.3157C104.519 46.6453 104.828 46.8102 105.23 46.8102H106.827V47.418H96.7825L96.7723 47.4386Z" fill="#708E41"/>
<path d="M138.772 47.4384C136.114 47.4384 134.064 46.8513 132.622 45.6666C131.169 44.4819 130.18 43.0706 129.655 41.443C129.119 39.805 128.676 37.7447 128.305 35.2621C128.058 33.5932 127.8 32.2849 127.543 31.3475C127.275 30.41 126.873 29.6683 126.317 29.1121C125.761 28.5558 124.998 28.3498 124.02 28.4734V45.0691C124.02 46.2126 124.432 46.7997 125.246 46.841H126.781V47.4487H109.268V46.841H110.803C111.617 46.841 112.029 46.2332 112.029 45.0073V7.41709C112.029 5.82035 111.339 5.02714 109.948 5.02714L109.278 5.08894V4.59447C116.376 3.12136 121.218 1.59673 123.783 0L124.03 0.309044V27.7935C125.781 27.7523 127.481 27.2166 129.109 26.1761C130.736 25.1357 132.065 23.9201 133.085 22.5294C134.105 21.1387 134.62 19.954 134.62 18.9754C134.62 18.5221 134.476 18.1719 134.187 17.904C133.899 17.6362 133.497 17.5023 132.962 17.5023H132.168V16.8327H140.554V17.5023H139.019C138.37 17.5023 137.762 17.7804 137.216 18.3264C136.66 18.8827 135.959 19.7686 135.104 20.9945C134.775 21.5302 134.208 22.3234 133.394 23.3844C131.684 25.4653 129.82 26.8766 127.821 27.608C131.251 27.608 133.899 28.2364 135.784 29.5035C137.659 30.7706 138.947 32.2643 139.637 33.9744C140.327 35.6844 140.925 37.8271 141.409 40.4025C141.821 42.6482 142.274 44.2759 142.789 45.2957C143.304 46.3156 144.19 46.8307 145.447 46.8307L146.003 47.4384H138.782H138.772Z" fill="#708E41"/>
<path d="M61.5204 83.947H58.1517C56.6786 83.9058 55.5558 83.607 54.7832 83.061C54.0105 82.5048 53.5573 81.4334 53.4337 79.847C52.7847 81.5158 51.5382 82.7932 49.7045 83.6688C47.8709 84.5445 45.8106 84.9874 43.5236 84.9874C41.5251 84.9874 39.6296 84.6372 37.8269 83.947C36.0344 83.2568 34.6128 82.2472 33.5724 80.9183C32.5319 79.5894 32.0889 77.9927 32.2538 76.1075C32.4598 74.0266 33.1809 72.3063 34.4274 70.9362C35.6738 69.5661 37.1161 68.5153 38.7746 67.7839C40.4331 67.0525 42.545 66.2696 45.1101 65.4558C47.0673 64.848 48.5714 64.3226 49.6118 63.8899C50.6523 63.4573 51.5279 62.9113 52.249 62.2417C52.9598 61.5721 53.3204 60.7377 53.3204 59.759C53.3204 57.5957 52.9907 56.0505 52.3417 55.1337C51.6927 54.2168 50.4874 53.7945 48.7259 53.8769C47.4588 53.9181 46.4183 54.3919 45.6045 55.2882C44.7907 56.1844 44.3786 57.2043 44.3786 58.3477C44.3786 59.1615 44.6362 59.9033 45.141 60.5522C45.656 61.2012 46.4183 61.6957 47.4382 62.0254C46.8304 62.9628 45.7384 63.7663 44.1623 64.4153C42.5862 65.0643 41.0101 65.394 39.4133 65.394C37.8166 65.394 36.4877 65.0025 35.406 64.2299C34.3244 63.4573 33.7887 62.2726 33.7887 60.6759C33.7887 59.1203 34.5201 57.7708 35.9932 56.6068C37.4663 55.4427 39.3412 54.5465 41.6281 53.9181C43.9151 53.2897 46.2844 52.9703 48.7259 52.9703C53.4131 52.9703 57.3791 53.9593 60.6035 55.9372C63.8279 57.9151 65.4349 61.7472 65.4349 67.413V81.557C65.4349 82.7417 65.847 83.3289 66.6608 83.3289H68.1957V83.9367H61.5204V83.947ZM47.7472 80.8874C48.355 81.0935 48.9731 81.1965 49.5809 81.1965C50.6008 81.1965 51.4764 80.8359 52.2078 80.1251C52.9392 79.4143 53.3307 78.2811 53.3719 76.7256V61.9739C52.5168 63.4058 51.0849 65.1982 49.0864 67.3615C47.9842 68.6286 47.1394 69.6176 46.542 70.3284C45.9445 71.0392 45.4706 71.7912 45.0997 72.5638C44.5641 73.5837 44.3065 74.6653 44.3065 75.8088C44.3065 76.6638 44.4713 77.4673 44.801 78.2296C45.1306 78.9919 45.5942 79.61 46.2123 80.0942C46.6244 80.4238 47.1291 80.6917 47.7472 80.8874Z" fill="#708E41"/>
<path d="M97.9467 53.9491C97.1741 53.9903 96.6178 54.5568 96.2882 55.6591L89.6746 80.6403C89.5922 81.1347 89.551 81.4541 89.551 81.6189C89.551 82.1958 89.6849 82.6078 89.9528 82.8757C90.2206 83.1435 90.509 83.2981 90.8387 83.3393H91.8174L92.0028 83.947H89.2523H84.6578H82.0309C80.393 83.8646 79.1053 83.4938 78.1472 82.8448C77.1892 82.1958 76.4475 80.8669 75.9118 78.8684C75.098 75.8913 74.0473 71.987 72.7596 67.1453C71.4719 62.3139 70.4829 58.5229 69.7927 55.793C69.5043 54.5671 68.9583 53.9594 68.1445 53.9594H66.5478L66.3623 53.3516H83.9367L84.0603 53.9594H82.5254C81.9485 54.0006 81.6704 54.3508 81.6704 54.9998C81.6704 55.2883 81.691 55.5149 81.7322 55.6694L88.593 81.382L95.3302 55.793C95.4126 55.587 95.4538 55.2985 95.4538 54.938C95.4538 54.3302 95.1653 54.0006 94.5987 53.9594H93.0638L93.1874 53.3516H99.6774L99.5538 53.9594H97.957L97.9467 53.9491Z" fill="#708E41"/>
<path d="M129.387 76.3857C128.223 78.4872 126.441 80.3106 124.03 81.8661C121.62 83.4216 118.663 84.1942 115.15 84.1942C112.05 84.1942 109.227 83.5864 106.703 82.3606C104.169 81.1347 102.16 79.3422 100.677 76.9729C99.1831 74.6035 98.4414 71.7912 98.4414 68.5256C98.4414 65.4661 99.2449 62.7568 100.862 60.4184C102.48 58.0696 104.633 56.2565 107.352 54.9689C110.062 53.6812 113.018 53.0425 116.201 53.0425C117.911 53.0425 119.632 53.3412 121.342 53.9284C123.052 54.5156 124.566 55.5148 125.874 56.8952C127.183 58.2859 127.996 60.0578 128.326 62.2211L111.73 71.2246C112.75 73.1819 114.048 74.6653 115.614 75.6646C117.19 76.6638 118.89 77.1686 120.724 77.1686C122.763 77.1686 124.7 76.5814 126.544 75.3967C128.378 74.2121 129.83 72.5638 130.891 70.4417L131.077 70.8744C131.118 72.4608 130.551 74.3151 129.397 76.4166L129.387 76.3857ZM111.287 70.3593L117.17 66.9289C117.046 64.3535 116.572 61.6648 115.758 58.8525C114.944 56.0402 113.842 54.6289 112.451 54.6289C112.287 54.6289 112.081 54.6701 111.844 54.7525C111.153 54.9586 110.597 55.7415 110.185 57.1116C109.773 58.4817 109.577 60.0784 109.577 61.9224C109.577 64.5802 110.01 67.0628 110.865 69.391C111.071 69.9266 111.215 70.246 111.298 70.3696L111.287 70.3593Z" fill="#708E41"/>
<path d="M171.767 60.439C171.767 62.4066 171.077 63.9621 169.687 65.1261C168.296 66.2902 166.709 66.8671 164.917 66.8671C163.372 66.8671 161.991 66.4035 160.817 65.4867C159.643 64.5699 158.921 63.2307 158.664 61.4691C158.252 58.698 157.387 57.3176 156.037 57.3176C155.264 57.3176 154.42 57.7091 153.523 58.4817C152.627 59.2543 151.813 60.1196 151.082 61.1086V60.0166C151.937 58.904 153.101 57.7812 154.564 56.648C156.037 55.5148 157.572 54.6289 159.158 54.0108C161.002 53.3618 162.651 53.0425 164.113 53.0425C166.04 53.0425 167.647 53.506 168.986 54.4435C170.305 55.3809 171.18 56.7716 171.582 58.595C171.706 59.2543 171.767 59.8724 171.767 60.439Z" fill="#708E41"/>
<path d="M151.082 83.3392V83.947H133.57V83.3392H135.104C135.918 83.3392 136.33 82.7211 136.33 81.4952V60.7377C136.33 59.141 135.62 58.3477 134.198 58.3477L133.528 58.3993V57.9048C140.616 56.4832 145.478 54.9379 148.084 53.3103L148.342 53.6194V81.5364C148.342 82.6902 148.754 83.2774 149.568 83.3186H151.103L151.082 83.3392Z" fill="#708E41"/>
</svg>
