<svg width="618" height="188" viewBox="0 0 618 188" fill="none" xmlns="http://www.w3.org/2000/svg">
<path d="M567.573 41.7928C601.409 41.7928 609.218 57.6267 596.204 91.2466L587.962 112.503C573.863 148.292 554.775 162.174 520.722 162.174H490.138L480.161 187.985H422.899L479.944 41.7928H567.573ZM537.423 95.1508C539.809 89.0775 538.508 87.5592 533.085 87.5592H519.42L507.491 117.709H521.372C526.795 117.709 528.964 116.624 531.35 110.768L537.423 95.1508Z" fill="#FF5B22"/>
<path d="M420.57 41.7928C454.407 41.7928 462.216 57.6267 449.202 91.2466L440.959 112.503C426.861 148.292 407.773 162.174 373.719 162.174H343.136L333.159 187.985H240.69L266.92 41.7928H420.57ZM390.421 95.1508C392.807 89.0776 391.505 87.5592 386.083 87.5592H372.418L360.488 117.709H374.37C379.793 117.709 381.962 116.624 384.348 110.768L390.421 95.1508Z" fill="#FF5B22"/>
<path d="M299.989 41.7928L264.634 187.985H207.371L214.312 165.21H193.49L182.861 187.985H124.731L203.684 41.7928H299.989ZM210.191 129.855H224.94L237.304 88.8606H229.495L210.191 129.855Z" fill="#FF5B22"/>
<path d="M134.913 140.7L116.477 187.985H0L14.7494 150.027L84.3751 92.548L85.8934 89.0776H41.4284L59.8651 42.0097H171.353L155.953 81.0522L89.3638 136.579L87.6286 140.7H134.913Z" fill="#FF5B22"/>
<path d="M602.551 31.7402C594.055 31.7402 587.194 24.6708 587.194 15.8701C587.194 7.06941 594.055 0 602.551 0C611.092 0 618.001 7.06941 618.001 15.8701C618.001 24.6708 611.092 31.7402 602.551 31.7402ZM602.551 29.1914C609.645 29.1914 615.433 23.18 615.433 15.8701C615.433 8.56024 609.645 2.54884 602.551 2.54884C595.456 2.54884 589.761 8.56024 589.761 15.8701C589.761 23.18 595.456 29.1914 602.551 29.1914ZM597.369 23.4685V7.35795H603.204C606.611 7.35795 608.245 9.18542 608.245 11.8304C608.245 13.8984 607.312 15.4373 605.631 16.0625C607.545 17.0243 608.618 19.7174 608.572 23.4685H606.051C606.005 17.2167 603.484 16.88 601.897 16.88H599.843V23.4685H597.369ZM599.843 14.6678H602.924C604.744 14.6678 605.771 13.7541 605.771 12.119C605.771 10.1953 604.511 9.66634 603.017 9.66634H599.843V14.6678Z" fill="#FF5B22"/>
<path d="M339.563 40.8662L298.921 40.8664L261.761 103.308L299.586 98.921L264.938 187.866L356.846 71.0088L317.338 77.863L339.563 40.8662Z" fill="white"/>
</svg>
