<svg width="200" height="112" viewBox="0 0 200 112" fill="none" xmlns="http://www.w3.org/2000/svg">
<path d="M51.888 15.6765C31.6294 6.50815 22.0938 14.6578 24.8645 36.5599H46.4545V48.2386H24.3967V109.979H11.6226V48.4569H0V36.9237H11.4787C11.4787 33.5401 11.4787 30.5568 11.4787 27.5735C11.5866 8.25449 25.4402 -3.13314 44.0796 0.759755C44.7993 0.905284 45.4829 1.01443 46.1666 1.23272C57.2495 4.79818 57.5014 3.05184 51.888 15.6765Z" fill="#4C99C4"/>
<path d="M198.592 36.5965C197.117 40.8532 195.965 44.2368 194.706 47.8386C181.464 42.636 168.978 41.3626 159.55 54.2419C152.318 64.1379 153.397 81.9651 161.169 91.9703C168.69 101.612 177.29 102.63 195.641 95.8995C196.937 99.3195 198.268 102.739 199.816 106.814C196.973 107.942 194.274 109.688 191.467 109.943C183.551 110.671 175.311 112.199 167.646 110.78C152.03 107.942 143.466 94.3351 142.026 79.5639C141.379 73.0151 141.523 65.9934 143.178 59.6992C148.575 38.8522 166.603 28.6288 188.265 33.3585C191.575 34.0861 194.778 35.3595 198.556 36.5601L198.592 36.5965Z" fill="#4C99C4"/>
<path d="M94.9222 98.702C96.0017 102.122 97.0092 105.396 98.0168 108.634C82.7238 115.729 60.0903 112.636 59.8744 89.4973C59.5865 61.01 59.7665 32.5227 59.7665 4.03543C59.7665 3.4897 59.9464 2.94396 60.0903 2.14355H72.6845C72.6845 3.70799 72.6845 5.23604 72.6845 6.7641C72.6845 31.9042 72.6845 57.0443 72.6845 82.2208C72.6845 83.3851 72.6845 84.5493 72.6845 85.7135C72.8284 97.6833 79.5573 102.886 91.108 99.8662C92.3314 99.5388 93.5188 99.1386 94.9222 98.7384V98.702Z" fill="#4C99C4"/>
<path d="M110.398 110.017V34.2324H123.28V110.017H110.398Z" fill="#4C99C4"/>
<path d="M116.442 2.54209C121.444 2.43295 125.978 6.68967 126.121 11.674C126.301 17.0222 122.775 20.8424 117.521 21.0243C112.016 21.2062 107.554 17.0586 107.59 11.8559C107.59 6.65328 111.44 2.65124 116.442 2.54209Z" fill="#4C99C4"/>
</svg>
