<svg width="159" height="40" viewBox="0 0 159 40" fill="none" xmlns="http://www.w3.org/2000/svg">
<g clip-path="url(#clip0_35_75)">
<path d="M56.5135 8.34863H59.7213V25.5682C59.7213 30.2513 57.773 32.592 53.8773 32.592C52.5249 32.592 51.1913 32.2419 49.8765 31.5408L51.4616 28.9234C52.4939 29.28 53.3358 29.4583 53.9871 29.4583C55.6708 29.4583 56.5126 28.3274 56.5126 26.0656L56.5135 8.34863Z" fill="black"/>
<path d="M64.5884 19.9184C64.5884 16.5285 65.8666 13.6238 68.4231 11.2044C70.9796 8.78492 74.0522 7.5752 77.641 7.5752C81.2298 7.5752 84.1608 8.79431 86.6928 11.2325C89.2249 13.6698 90.4909 16.5651 90.4909 19.9184C90.4909 23.4678 89.2399 26.4672 86.7388 28.9176C84.2377 31.368 81.1679 32.5928 77.5303 32.5928C73.8927 32.5928 70.8866 31.3586 68.3677 28.8895C65.8478 26.4212 64.5884 23.4302 64.5884 19.9184ZM87.0804 20.0657C87.0804 17.4745 86.1466 15.2925 84.2781 13.5178C82.4095 11.7431 80.1111 10.8562 77.3829 10.8562C74.6547 10.8562 72.5684 11.759 70.7187 13.5638C68.8689 15.3685 67.9445 17.5364 67.9445 20.0657C67.9445 22.595 68.8942 24.8023 70.7928 26.5761C72.6914 28.3508 75.0179 29.2367 77.7705 29.2367C80.3026 29.2367 82.4874 28.332 84.3241 26.5207C86.1616 24.7094 87.0804 22.5574 87.0804 20.0657Z" fill="black"/>
<path d="M91.9665 8.34863H95.3526L102.728 24.9835L110.158 8.34863H113.573L102.686 32.592L91.9665 8.34863Z" fill="black"/>
<path d="M122.856 7.40723L111.861 31.797H115.194L117.892 25.7877H120.728L122.902 30.5347L125.076 25.7877H127.856L130.582 31.797H133.943L122.856 7.40723ZM125.849 23.1177L125.67 23.5138H125.679L124.638 25.7887L124.164 26.8248L122.903 29.583L122.051 27.7229L121.167 25.7887L120.126 23.5138L119.947 23.1177H119.091L119.514 22.1736L122.848 14.7369L126.251 22.2421L126.647 23.1168H125.85L125.849 23.1177Z" fill="black"/>
<path d="M137.393 8.31152H142.481C145.013 8.31152 147.074 8.94127 148.667 10.2007C150.258 11.4602 151.054 13.0735 151.054 15.0387C151.054 16.6107 150.539 18.0006 149.51 19.2047C148.48 20.4088 146.873 21.2562 144.692 21.748L151.515 31.7993H147.835L141.32 22.1384H140.601V31.7993H137.394L137.393 8.31152ZM140.6 11.1505V19.3361C145.332 19.4346 147.698 18.0644 147.698 15.2245C147.698 14.2288 147.421 13.4151 146.869 12.7816C146.316 12.149 145.578 11.7192 144.657 11.4912C143.735 11.264 142.383 11.1505 140.6 11.1505Z" fill="black"/>
<path d="M155.718 8.31152H158.889V31.7993H155.718V8.31152Z" fill="black"/>
<mask id="mask0_35_75" style="mask-type:luminance" maskUnits="userSpaceOnUse" x="0" y="0" width="40" height="40">
<path d="M40 0H0V40H40V0Z" fill="white"/>
</mask>
<g mask="url(#mask0_35_75)">
<path d="M23.3191 3.94306L19.9999 0.522461L16.6807 3.94306L19.9999 7.16426L23.3191 3.94306Z" fill="black"/>
<path d="M18.0531 6.50098V33.1214C18.0531 33.3098 18.0541 33.4918 18.0557 33.6684L18.0531 33.669C18.0531 36.5214 15.7483 37.681 15.7483 37.681L17.2085 39.4348C21.2885 38.1894 21.9471 35.6554 21.9471 35.6554V6.50098L20.0001 8.39538L18.0531 6.50098Z" fill="black"/>
<path d="M39.6362 19.7705C39.613 19.5637 39.4316 19.4669 39.2668 19.3791C39.0416 19.2589 38.8252 19.1085 38.6864 18.8897C38.5684 18.7037 38.4934 18.5243 38.3264 18.3741C38.1368 18.2035 37.9454 18.0347 37.7538 17.8663C37.3706 17.5293 36.9848 17.1957 36.596 16.8653C36.2798 16.5965 35.9616 16.3297 35.6418 16.0651C35.3722 15.8421 35.0666 15.6371 34.8988 15.3203C34.7294 15.0003 34.7688 14.6081 34.5416 14.3059C34.349 14.0497 34.0294 13.8601 33.7164 13.7969C33.4032 13.7337 33.1582 13.6723 32.9018 13.4647C32.7234 13.3203 32.5482 13.1719 32.3754 13.0209C32.0364 12.7247 31.7064 12.4183 31.3776 12.1109C32.192 11.9073 32.8324 11.4133 32.8094 10.5119C32.801 10.1857 32.69 9.86628 32.4856 9.61108C32.2958 9.37408 31.9912 9.09688 31.6708 9.08508C31.9088 9.44188 31.8858 9.94128 31.6702 10.3027C31.4296 10.7061 30.9156 10.9423 30.4484 10.8941C30.883 10.1681 30.8524 9.18988 30.3734 8.49248C29.8944 7.79508 28.9598 7.52628 28.1136 7.52628C28.1136 7.52628 28.0636 6.68168 27.0614 6.15188C26.1966 5.69468 25.322 6.00148 25.322 6.00148L23.932 4.58008L22.8344 5.64088L22.834 8.34928C24.6168 6.25208 26.3992 7.20408 26.3992 7.20408C26.3992 7.20408 24.2304 7.11108 22.834 9.46608L22.8344 11.5849C23.5346 10.7377 24.8542 9.66408 26.2842 9.66408C29.0544 9.66408 29.663 11.7781 29.663 11.7781C29.1692 11.3199 28.8012 10.9791 28.2136 10.7367C27.1292 10.2893 26.3184 10.2099 25.3254 10.6723C24.3894 11.1081 23.7256 11.7353 22.8344 12.9307L22.834 15.1123C23.4358 14.4053 24.3118 13.7095 25.1028 13.4645C26.432 13.0525 27.8738 13.3675 28.7858 14.3823C28.2532 14.1763 27.9788 14.0991 27.516 14.0223C25.8124 13.7395 24.4344 14.3229 23.1514 16.1267C23.0446 16.2769 22.9008 16.5043 22.8346 16.6763V33.6633C22.8346 33.6633 22.7776 34.9057 23.8942 34.9057C23.6058 34.5775 23.5184 34.0897 23.552 33.6625C23.588 33.2067 23.8158 32.7705 24.102 32.4087C24.2894 32.1717 24.5084 31.9547 24.7704 31.8043C25.0326 31.6539 25.3416 31.5737 25.6406 31.6177C25.7226 31.6297 25.8032 31.6511 25.8792 31.6839C26.2336 31.8371 26.443 32.2417 26.4196 32.6271C26.3962 33.0125 26.1876 33.3701 25.8794 33.6027C26.5364 33.4551 27.147 33.0733 27.5274 32.5175C27.9076 31.9617 28.041 31.2321 27.8354 30.5909C27.735 30.2781 27.304 29.5761 27.6466 29.3001C27.78 29.1927 27.965 29.1619 28.133 29.1951C28.301 29.2281 28.4532 29.3195 28.582 29.4325C29.0346 29.8295 29.2266 30.4881 29.2164 31.0899C29.606 30.6369 29.7766 30.0037 29.6672 29.4163C29.5986 29.0471 29.4282 28.7077 29.24 28.3863C29.067 28.0907 28.9316 27.7693 28.8746 27.4269C28.8388 27.2111 28.8406 26.9907 28.849 26.7721C28.8582 26.5289 29.0286 25.2585 29.5346 25.5427C29.6916 25.6309 29.8432 25.7299 29.9924 25.8305C30.2844 26.0277 30.5644 26.2425 30.8358 26.4673C30.7262 27.0749 30.2968 27.5331 29.7278 27.8141C30.5642 28.0591 31.5296 27.8135 32.171 27.2231C32.2366 27.6333 32.226 27.8891 32.0484 28.2567C31.8812 28.6027 31.6132 28.8615 31.2374 29.1005C32.344 29.1219 33.2822 28.6311 34.019 27.9265C34.6292 27.3431 35.0766 26.4843 35.2114 25.6509C35.283 25.5861 35.3324 25.4999 35.3446 25.4035C35.3812 25.1123 35.1988 24.9025 34.9568 24.7753C34.9444 24.7687 34.8262 24.7265 34.8258 24.7229C34.789 24.3669 34.7158 24.0437 34.4858 23.7559C34.2702 23.4859 33.9764 23.3041 33.639 23.2295C34.1968 23.6329 34.1156 24.4377 33.556 24.7927C33.2422 24.9917 32.8366 25.0175 32.492 24.8875C32.3006 24.8153 32.042 24.6755 32.0284 24.4431C32.0086 24.1045 32.2824 24.1349 32.5246 24.2125C32.67 24.2591 32.8306 24.2673 32.975 24.2175C33.1194 24.1677 33.245 24.0557 33.2944 23.9113C33.3306 23.8053 33.325 23.6885 33.2958 23.5803C33.1916 23.1937 32.7616 22.9263 32.3688 23.0041C32.1324 23.0509 31.9296 23.2011 31.719 23.3121C31.657 23.3447 31.5862 23.3591 31.5172 23.3477C31.1532 23.2881 31.5056 22.8585 31.602 22.7367C31.8334 22.4447 32.0826 22.1665 32.3476 21.9045C32.5002 21.7537 32.6716 21.6015 32.8836 21.5693C33.1836 21.5237 33.489 21.7145 33.7378 21.8573C34.247 22.1495 34.73 22.4761 35.2408 22.7599C35.3636 23.3041 35.3052 23.8903 35.0646 24.3943C35.638 24.2257 36.1258 23.8065 36.403 23.2793C36.7358 23.3809 37.0792 23.4277 37.4324 23.3531C37.9032 23.2537 38.3564 22.9695 38.5754 22.5301C38.7936 22.0925 38.7568 21.5473 38.5782 21.1029C38.4402 20.7595 38.2048 20.4601 37.9236 20.2199C37.7454 20.0677 37.5472 19.9367 37.3922 19.7609C37.1578 19.4947 37.0018 18.8535 37.5602 19.0963C37.8904 19.2399 38.1208 19.5671 38.3532 19.8277C38.6734 20.1869 38.9104 20.6169 39.0914 21.0605C39.2638 20.9203 39.3906 20.6971 39.4792 20.4967C39.571 20.2893 39.662 19.9995 39.6362 19.7705ZM23.5646 32.1137V30.6965C24.4988 28.9035 26.034 28.7853 26.034 28.7853C24.1766 29.9019 23.5646 32.1137 23.5646 32.1137ZM23.5646 29.3221V27.7653C25.057 25.7897 26.5494 26.0151 26.5494 26.0151C24.359 26.9385 23.5646 29.3221 23.5646 29.3221ZM33.486 16.0277L32.388 15.9613C31.6296 14.5153 30.403 14.2847 30.403 14.2847C32.0624 13.9669 32.922 15.2673 33.486 16.0277ZM32.4586 18.5201C31.6246 17.4327 30.8364 16.6611 30.8364 16.6611C32.497 16.8573 33.5292 16.8767 33.5292 16.8767C33.3568 18.1341 32.4586 18.5201 32.4586 18.5201Z" fill="black"/>
<path d="M0.52082 20.4957C0.60942 20.6961 0.73622 20.9193 0.90862 21.0595C1.08962 20.6157 1.32682 20.1859 1.64682 19.8267C1.87922 19.5659 2.10962 19.2389 2.43982 19.0953C2.99822 18.8525 2.84222 19.4937 2.60782 19.7599C2.45302 19.9357 2.25462 20.0667 2.07642 20.2189C1.79502 20.4591 1.55962 20.7587 1.42182 21.1019C1.24322 21.5463 1.20642 22.0915 1.42462 22.5291C1.64362 22.9685 2.09682 23.2527 2.56762 23.3521C2.92082 23.4267 3.26442 23.3799 3.59702 23.2783C3.87402 23.8057 4.36202 24.2247 4.93542 24.3933C4.69482 23.8891 4.63642 23.3031 4.75922 22.7589C5.26982 22.4751 5.75282 22.1485 6.26222 21.8563C6.51101 21.7135 6.81662 21.5227 7.11642 21.5683C7.32841 21.6005 7.49981 21.7529 7.65241 21.9035C7.91741 22.1655 8.16661 22.4435 8.39801 22.7357C8.49461 22.8575 8.84701 23.2871 8.48281 23.3467C8.41381 23.3581 8.34281 23.3437 8.28101 23.3111C8.07041 23.2001 7.86761 23.0499 7.63121 23.0031C7.23841 22.9253 6.80841 23.1925 6.70422 23.5793C6.67501 23.6873 6.66942 23.8043 6.70562 23.9103C6.75502 24.0549 6.88062 24.1667 7.02501 24.2165C7.16941 24.2663 7.32981 24.2581 7.47541 24.2115C7.71761 24.1341 7.99141 24.1037 7.97161 24.4421C7.95801 24.6745 7.69941 24.8143 7.50801 24.8865C7.16361 25.0165 6.75802 24.9907 6.44402 24.7917C5.88442 24.4367 5.80322 23.6319 6.36102 23.2285C6.02362 23.3031 5.72982 23.4851 5.51422 23.7549C5.28442 24.0427 5.21122 24.3659 5.17422 24.7219C5.17382 24.7255 5.05562 24.7677 5.04322 24.7743C4.80102 24.9015 4.61862 25.1113 4.65542 25.4025C4.66762 25.4989 4.71702 25.5851 4.78862 25.6499C4.92342 26.4833 5.37082 27.3421 5.98102 27.9255C6.71781 28.6299 7.65601 29.1209 8.76261 29.0995C8.38681 28.8605 8.11881 28.6017 7.95161 28.2557C7.77401 27.8881 7.76321 27.6321 7.82901 27.2221C8.47021 27.8123 9.43581 28.0581 10.2722 27.8131C9.70321 27.5321 9.27381 27.0739 9.16421 26.4663C9.43561 26.2415 9.71561 26.0267 10.0076 25.8295C10.1566 25.7289 10.3084 25.6297 10.4654 25.5417C10.9714 25.2575 11.1418 26.5279 11.151 26.7711C11.1594 26.9897 11.1612 27.2101 11.1254 27.4259C11.0684 27.7683 10.933 28.0897 10.76 28.3853C10.5718 28.7067 10.4014 29.0461 10.3328 29.4153C10.2236 30.0027 10.3942 30.6359 10.7836 31.0889C10.7734 30.4871 10.9654 29.8285 11.418 29.4315C11.5468 29.3185 11.699 29.2273 11.867 29.1941C12.035 29.1611 12.22 29.1917 12.3534 29.2991C12.696 29.5753 12.2648 30.2771 12.1646 30.5899C11.959 31.2311 12.0924 31.9609 12.4726 32.5165C12.8528 33.0723 13.4636 33.4541 14.1206 33.6017C13.8126 33.3691 13.6038 33.0113 13.5804 32.6261C13.557 32.2407 13.7666 31.8361 14.1208 31.6829C14.1968 31.6501 14.2776 31.6287 14.3594 31.6167C14.6584 31.5725 14.9674 31.6529 15.2296 31.8033C15.4918 31.9537 15.7106 32.1705 15.898 32.4077C16.1842 32.7695 16.412 33.2059 16.448 33.6615C16.4818 34.0887 16.3942 34.5765 16.1058 34.9047C17.2224 34.9047 17.1654 33.6623 17.1654 33.6623V16.6753C17.0992 16.5033 16.9554 16.2759 16.8486 16.1257C15.5656 14.3219 14.1876 13.7385 12.484 14.0213C12.0212 14.0981 11.7468 14.1751 11.2142 14.3813C12.1262 13.3665 13.568 13.0515 14.8972 13.4635C15.6882 13.7087 16.5642 14.4043 17.166 15.1113L17.1656 12.9297C16.2744 11.7343 15.6106 11.1073 14.6746 10.6713C13.6816 10.2089 12.8708 10.2883 11.7864 10.7357C11.1988 10.9781 10.8308 11.3191 10.337 11.7771C10.337 11.7771 10.9458 9.6631 13.7158 9.6631C15.1458 9.6631 16.4656 10.7367 17.1656 11.5839L17.166 9.4651C15.7698 7.1101 13.6008 7.2031 13.6008 7.2031C13.6008 7.2031 15.3832 6.2511 17.166 8.3483L17.1656 5.6399L16.068 4.5791L14.678 6.0005C14.678 6.0005 13.8034 5.6937 12.9386 6.1509C11.9364 6.6805 11.8864 7.5253 11.8864 7.5253C11.0402 7.5253 10.1056 7.7941 9.62661 8.4915C9.14761 9.1889 9.11701 10.1671 9.55161 10.8931C9.08441 10.9413 8.57021 10.7051 8.32981 10.3017C8.11441 9.9403 8.09121 9.4409 8.32921 9.0841C8.00881 9.0959 7.70421 9.3731 7.51441 9.6101C7.31001 9.8653 7.19881 10.1847 7.19061 10.5109C7.16761 11.4123 7.80801 11.9063 8.62241 12.1099C8.29341 12.4173 7.96361 12.7235 7.62461 13.0199C7.45182 13.1709 7.27681 13.3195 7.09822 13.4637C6.84182 13.6711 6.59682 13.7327 6.28362 13.7959C5.97062 13.8591 5.65102 14.0487 5.45842 14.3049C5.23142 14.6071 5.27082 14.9993 5.10122 15.3193C4.93342 15.6363 4.62782 15.8411 4.35822 16.0641C4.03822 16.3287 3.72022 16.5953 3.40402 16.8643C3.01542 17.1947 2.62942 17.5285 2.24622 17.8653C2.05462 18.0337 1.86322 18.2025 1.67362 18.3731C1.50662 18.5233 1.43162 18.7027 1.31362 18.8887C1.17462 19.1077 0.95822 19.2581 0.73322 19.3781C0.56842 19.4661 0.38702 19.5627 0.36382 19.7695C0.33802 19.9985 0.42902 20.2883 0.52082 20.4957ZM13.9658 28.7845C13.9658 28.7845 15.5012 28.9027 16.4352 30.6957V32.1129C16.4352 32.1129 15.8232 29.9011 13.9658 28.7845ZM13.4504 26.0145C13.4504 26.0145 14.9428 25.7891 16.4352 27.7647V29.3215C16.4352 29.3215 15.6406 26.9379 13.4504 26.0145ZM9.59721 14.2841C9.59721 14.2841 8.37061 14.5147 7.61221 15.9607L6.51422 16.0271C7.07821 15.2667 7.93801 13.9663 9.59721 14.2841ZM6.47101 16.8761C6.47101 16.8761 7.50321 16.8567 9.16381 16.6605C9.16381 16.6605 8.37561 17.4321 7.54161 18.5195C7.54161 18.5195 6.64341 18.1335 6.47101 16.8761Z" fill="black"/>
</g>
</g>
<defs>
<clipPath id="clip0_35_75">
<rect width="159" height="40" fill="white"/>
</clipPath>
</defs>
</svg>
