<svg width="324" height="60" viewBox="0 0 324 60" fill="none" xmlns="http://www.w3.org/2000/svg">
<g clip-path="url(#clip0_35_57)">
<mask id="mask0_35_57" style="mask-type:luminance" maskUnits="userSpaceOnUse" x="0" y="0" width="324" height="60">
<path d="M323.333 0H0V60H323.333V0Z" fill="white"/>
</mask>
<g mask="url(#mask0_35_57)">
<path d="M88.5213 33.6827L87.8696 32.8878C87.1651 31.9163 86.5309 31.4925 85.5623 31.4925H82.9908V27.2888H86.1083C88.1514 27.2888 89.1729 27.8717 90.2473 29.3377L91.1103 30.468C91.9029 28.8608 92.3431 26.9708 92.3431 24.869C92.3431 21.7427 91.4801 19.217 89.7718 17.221C88.0633 15.2252 85.8618 14.2538 83.1141 14.2538C80.3666 14.2538 78.1298 15.2252 76.4213 17.221C74.7129 19.217 73.8499 21.7427 73.8499 24.869C73.8499 27.9953 74.7129 30.521 76.4213 32.517C78.1298 34.5128 80.3313 35.5372 83.1141 35.5372C85.1573 35.5372 86.9713 34.9543 88.5388 33.7003L88.5213 33.6827ZM98.7013 35.2017V39.4583H95.8658C94.7384 39.4583 93.8226 39.2993 93.1886 39.0345C92.5369 38.7165 91.9558 38.169 91.4098 37.4625L91.2513 37.2505C88.9439 38.9285 86.2139 39.7233 83.0438 39.7233C80.2961 39.7233 77.9008 39.0698 75.6993 37.7803C73.5504 36.491 71.8949 34.76 70.7148 32.4993C69.5348 30.2385 68.9536 27.7127 68.9536 24.8513C68.9536 21.99 69.5348 19.5172 70.7148 17.2563C71.8949 14.9956 73.5681 13.2293 75.6993 11.9399C77.9008 10.6506 80.3138 9.99707 83.0438 9.99707C85.7736 9.99707 88.2394 10.6506 90.3881 11.9399C92.5898 13.2293 94.1924 14.9956 95.4429 17.2563C96.6231 19.5172 97.2043 22.043 97.2043 24.8513C97.2043 28.6135 96.1828 31.8457 94.1573 34.4245C94.6856 34.919 95.3901 35.184 96.1299 35.184H98.7013V35.2017Z" fill="#1E1E1E"/>
<path d="M116.367 18.1397H120.876V39.4586H116.913L116.384 36.7739C114.782 38.7697 112.58 39.7236 109.833 39.7236C107.472 39.7236 105.535 39.0699 103.985 37.6216C102.382 36.1732 101.467 33.5239 101.467 30.0267V18.1221H105.923V29.4792C105.923 33.6829 107.596 35.7847 110.907 35.7847C114.218 35.7847 116.384 33.2059 116.384 28.7902V18.1221L116.367 18.1397Z" fill="#1E1E1E"/>
<path d="M135.018 35.9438C136.85 35.9438 138.347 35.255 139.527 33.948C140.654 32.6585 141.183 30.9276 141.183 28.8965C141.183 26.8651 140.654 25.0283 139.527 23.739C138.347 22.3965 136.832 21.69 135.018 21.69C133.204 21.69 131.689 22.3788 130.509 23.686C129.382 24.9753 128.854 26.7063 128.854 28.8081C128.854 30.91 129.382 32.6231 130.509 33.9656C131.689 35.255 133.187 35.9615 135.018 35.9615V35.9438ZM141.799 18.1398H145.656V39.4586H141.729L141.2 36.2265C139.545 38.5401 137.237 39.7236 134.279 39.7236C131.32 39.7236 128.907 38.7521 127.04 36.774C125.155 34.831 124.257 32.1993 124.257 28.8081C124.257 25.4168 125.226 22.9441 127.093 20.8951C128.977 18.8993 131.39 17.875 134.279 17.875C137.167 17.875 139.598 19.0053 141.2 21.2661L141.799 18.1398Z" fill="#1E1E1E"/>
<path d="M169.733 27.607V39.441H165.224V27.978C165.224 23.8801 163.516 21.743 160.117 21.743C156.524 21.743 154.428 24.3748 154.428 28.7375V39.4586H149.972V18.1398H153.829L154.357 20.9481C155.96 18.8993 158.285 17.875 161.173 17.875C165.841 17.875 169.698 20.4536 169.698 27.554V27.607H169.733Z" fill="#1E1E1E"/>
<path d="M175.158 22.0611H171.458V18.1222H175.158V12.1523H179.667V18.1222H184.88V22.0611H179.667V33.2062C179.667 34.9194 180.265 35.5199 181.973 35.5199H185.145V39.4587H180.952C176.918 39.4587 175.158 37.5689 175.158 33.7007V22.0787V22.0611Z" fill="#1E1E1E"/>
<path d="M202.898 18.1397H207.407V39.4586H203.48L202.952 36.7739C201.348 38.7697 199.147 39.7236 196.398 39.7236C194.038 39.7236 192.102 39.0699 190.498 37.6216C188.897 36.1732 187.98 33.5239 187.98 30.0267V18.1221H192.488V29.4792C192.488 33.6829 194.162 35.7847 197.42 35.7847C200.678 35.7847 202.898 33.2059 202.898 28.7902V18.1221V18.1397Z" fill="#1E1E1E"/>
<path d="M243.83 27.1832V39.4587H239.322V27.4482C239.322 23.7391 237.823 21.7431 234.918 21.7431C233.35 21.7431 232.135 22.2731 231.218 23.4211C230.303 24.4986 229.88 25.9999 229.88 27.9427V39.4587H225.318V27.4482C225.318 23.7391 223.752 21.7431 220.81 21.7431C219.313 21.7431 218.062 22.3437 217.217 23.4564C216.302 24.5869 215.878 26.1411 215.878 28.0311V39.4411H211.37V18.1222H215.28L215.773 20.9307C217.323 18.8817 219.365 17.8574 221.99 17.8574C224.948 17.8574 227.362 19.0937 228.595 21.7254C229.987 19.3057 232.452 17.8574 235.833 17.8574C240.237 17.8574 243.83 20.3831 243.83 27.1656V27.1832Z" fill="#1E1E1E"/>
<path d="M252.9 14.43V24.7097H259.17C260.878 24.7097 262.288 24.2152 263.238 23.3143C264.26 22.3958 264.807 21.1595 264.807 19.6052C264.807 18.0508 264.278 16.8145 263.238 15.8431C262.27 14.9246 260.878 14.4477 259.17 14.4477H252.9V14.43ZM248.075 39.458V10.2793H259.558C262.605 10.2793 265.07 11.0918 266.955 12.8051C268.787 14.4654 269.703 16.7262 269.703 19.5875C269.703 21.5303 269.21 23.2437 268.205 24.7097C267.185 26.211 265.793 27.2355 264.067 27.836L270.232 39.458H264.86L259.277 28.9134H252.9V39.458H248.075Z" fill="#1E1E1E"/>
<path d="M273.225 18.1392H277.735V39.458H273.225V18.1392ZM275.533 15.1189C274.74 15.1189 274.088 14.854 273.56 14.3594C273.032 13.8296 272.803 13.176 272.803 12.4165C272.803 11.6217 273.013 10.9682 273.56 10.4207C274.088 9.92606 274.74 9.66113 275.533 9.66113C276.29 9.66113 276.923 9.92606 277.47 10.4207C277.998 10.9505 278.28 11.6041 278.28 12.4165C278.28 13.176 278.017 13.8119 277.47 14.3594C276.942 14.854 276.29 15.1189 275.533 15.1189Z" fill="#1E1E1E"/>
<path d="M285.678 32.4467C285.837 34.7076 287.827 36.2089 290.997 36.2089C293.78 36.2089 295.612 35.1314 295.612 33.4181C295.612 32.5527 295.188 31.9167 294.802 31.5812C294.59 31.3692 294.22 31.2632 293.727 31.0867C293.198 30.9277 292.758 30.8747 292.388 30.8217C292.072 30.7687 291.472 30.6627 290.68 30.5567H290.362C288.213 30.2919 286.822 30.0269 285.202 29.4264C284.445 29.1084 283.81 28.7729 283.335 28.3489C282.367 27.5364 281.662 26.1941 281.662 24.4809C281.662 22.4849 282.472 20.8777 284.128 19.6236C285.73 18.4402 287.827 17.8574 290.415 17.8574C293.005 17.8574 295.242 18.4402 296.915 19.6236C298.623 20.8601 299.487 22.5379 299.645 24.6397H295.242C295.135 23.6684 294.66 22.8736 293.743 22.2201C292.882 21.6196 291.807 21.3016 290.468 21.3016C287.773 21.3016 286.065 22.3791 286.065 24.0922C286.065 25.1167 286.663 25.6642 287.457 26.0352C287.95 26.2471 289.058 26.4237 289.712 26.5297C290.08 26.5827 290.573 26.6357 291.208 26.6887C292.282 26.8476 293.18 27.0066 293.99 27.1126C294.748 27.2716 295.54 27.5012 296.35 27.8191C297.143 28.1371 297.795 28.5079 298.323 28.9496C299.292 29.8149 299.997 31.2102 299.997 33.0472C299.997 35.0961 299.133 36.7034 297.478 37.8867C295.77 39.1232 293.622 39.7237 290.997 39.7237C288.09 39.7237 285.73 39.0702 283.968 37.7807C282.19 36.4914 281.292 34.7252 281.222 32.4644H285.678V32.4467Z" fill="#1E1E1E"/>
<path d="M318.613 26.4767C318.297 23.2974 316.148 21.4782 312.977 21.4782C311.48 21.4782 310.23 21.9551 309.173 22.8736C308.098 23.7921 307.465 24.9754 307.307 26.4767H318.683H318.632H318.613ZM305.352 36.7564C303.413 34.7606 302.463 32.1287 302.463 28.8436C302.463 25.5582 303.378 22.8736 305.298 20.8777C307.235 18.8817 309.755 17.8574 312.925 17.8574C316.095 17.8574 318.508 18.7757 320.375 20.6127C322.26 22.4496 323.228 24.9224 323.333 28.0311C323.333 28.5609 323.28 29.1614 323.175 29.7619H307.13V30.0269C307.183 31.8639 307.782 33.3122 308.838 34.3896C309.913 35.5201 311.303 36.0499 313.083 36.0499C315.83 36.0499 317.803 34.6546 318.455 32.2877H322.912C322.523 34.4956 321.467 36.2619 319.74 37.6219C318.032 39.0172 315.883 39.7237 313.312 39.7237C309.983 39.7237 307.358 38.6992 305.368 36.7741L305.352 36.7564Z" fill="#1E1E1E"/>
<path d="M49.2446 52.7402H24.6221V59.9996H49.2446V52.7402Z" fill="#1E1E1E"/>
<path d="M41.9533 42.09H7.29165V7.31233H41.9533V42.0723V42.09ZM24.6225 0C11.0079 0 0 11.0921 0 24.71C0 38.328 11.0079 49.42 24.6225 49.42C38.2372 49.42 49.245 38.381 49.245 24.71C49.245 11.0392 38.2018 0 24.6225 0Z" fill="#1E1E1E"/>
</g>
</g>
<defs>
<clipPath id="clip0_35_57">
<rect width="324" height="60" fill="white"/>
</clipPath>
</defs>
</svg>
